G04 ---------------------------- Layer name :BOTTOM SOLDER LAYER*
G04 EasyEDA v5.8.22, Tue, 08 Jan 2019 20:33:26 GMT*
G04 129acfe98f9248dba87738b5e980386f*
G04 Gerber Generator version 0.2*
G04 Scale: 100 percent, Rotated: No, Reflected: No *
G04 Dimensions in inches *
G04 leading zeros omitted , absolute positions ,2 integer and 4 decimal *
%FSLAX24Y24*%
%MOIN*%
G90*
G70D02*

%ADD43C,0.059181*%
%ADD48R,0.074929X0.074929*%
%ADD49C,0.074929*%
%ADD50C,0.070000*%
%ADD51R,0.070000X0.070000*%
%ADD54R,0.065870X0.053670*%
%ADD55R,0.053670X0.065870*%
%ADD58R,0.074929X0.070000*%
%ADD60R,0.079000X0.024000*%
%ADD61R,0.024000X0.079000*%

%LPD*%
G54D43*
G01X23482Y13279D02*
G01X23482Y13634D01*
G01X27517Y13279D02*
G01X27517Y13634D01*
G01X27517Y11822D02*
G01X27517Y12177D01*
G01X23482Y11822D02*
G01X23482Y12177D01*
G54D60*
G01X18639Y3894D03*
G01X18639Y3634D03*
G01X18639Y3384D03*
G01X18639Y3125D03*
G01X18639Y2865D03*
G01X18639Y2615D03*
G01X18639Y2355D03*
G01X18639Y2105D03*
G01X16360Y2105D03*
G01X16360Y2355D03*
G01X16360Y2615D03*
G01X16360Y2865D03*
G01X16360Y3125D03*
G01X16360Y3384D03*
G01X16360Y3634D03*
G01X16360Y3894D03*
G54D61*
G01X11894Y4359D03*
G01X11635Y4359D03*
G01X11385Y4359D03*
G01X11125Y4359D03*
G01X10864Y4359D03*
G01X10614Y4359D03*
G01X10355Y4359D03*
G01X10105Y4359D03*
G01X10105Y6640D03*
G01X10355Y6640D03*
G01X10614Y6640D03*
G01X10864Y6640D03*
G01X11125Y6640D03*
G01X11385Y6640D03*
G01X11635Y6640D03*
G01X11894Y6640D03*
G36*
G01X28539Y3748D02*
G01X28217Y3426D01*
G01X28626Y3017D01*
G01X28948Y3340D01*
G01X28539Y3748D01*
G37*
G36*
G01X27973Y3182D02*
G01X27651Y2859D01*
G01X28060Y2451D01*
G01X28382Y2773D01*
G01X27973Y3182D01*
G37*
G36*
G01X29660Y4051D02*
G01X29982Y4373D01*
G01X29573Y4782D01*
G01X29251Y4459D01*
G01X29660Y4051D01*
G37*
G36*
G01X30226Y4617D02*
G01X30548Y4940D01*
G01X30139Y5348D01*
G01X29817Y5026D01*
G01X30226Y4617D01*
G37*
G54D55*
G01X26000Y10800D03*
G01X26800Y10800D03*
G01X25200Y10800D03*
G01X24400Y10800D03*
G54D54*
G01X3400Y3099D03*
G01X3400Y3899D03*
G01X4400Y3099D03*
G01X4400Y3899D03*
G01X5400Y3099D03*
G01X5400Y3899D03*
G01X6400Y3099D03*
G01X6400Y3899D03*
G01X12000Y2099D03*
G01X12000Y2899D03*
G01X11000Y2099D03*
G01X11000Y2899D03*
G01X10000Y2099D03*
G01X10000Y2899D03*
G01X7700Y5099D03*
G01X7700Y5899D03*
G54D55*
G01X21500Y7800D03*
G01X20700Y7800D03*
G01X16500Y7800D03*
G01X15700Y7800D03*
G01X6500Y7800D03*
G01X5700Y7800D03*
G01X11500Y7800D03*
G01X10700Y7800D03*
G01X21500Y11300D03*
G01X20700Y11300D03*
G01X16500Y11300D03*
G01X15700Y11300D03*
G01X11500Y11300D03*
G01X10700Y11300D03*
G01X6500Y11300D03*
G01X5700Y11300D03*
G54D48*
G01X3500Y12500D03*
G54D49*
G01X4500Y12500D03*
G01X5500Y12500D03*
G01X6500Y12500D03*
G54D48*
G01X8500Y12500D03*
G54D49*
G01X9500Y12500D03*
G01X10500Y12500D03*
G01X11500Y12500D03*
G54D48*
G01X13500Y12500D03*
G54D49*
G01X14500Y12500D03*
G01X15500Y12500D03*
G01X16500Y12500D03*
G54D48*
G01X18500Y12500D03*
G54D49*
G01X19500Y12500D03*
G01X20500Y12500D03*
G01X21500Y12500D03*
G54D48*
G01X8500Y9000D03*
G54D49*
G01X9500Y9000D03*
G01X10500Y9000D03*
G01X11500Y9000D03*
G54D48*
G01X3500Y9000D03*
G54D49*
G01X4500Y9000D03*
G01X5500Y9000D03*
G01X6500Y9000D03*
G54D48*
G01X13500Y9000D03*
G54D49*
G01X14500Y9000D03*
G01X15500Y9000D03*
G01X16500Y9000D03*
G54D48*
G01X18500Y9000D03*
G54D49*
G01X19500Y9000D03*
G01X20500Y9000D03*
G01X21500Y9000D03*
G54D48*
G01X3500Y5500D03*
G54D49*
G01X4500Y5500D03*
G01X5500Y5500D03*
G01X6500Y5500D03*
G54D48*
G01X13500Y5500D03*
G54D49*
G01X14500Y5500D03*
G01X15500Y5500D03*
G01X16500Y5500D03*
G54D50*
G01X32100Y5000D03*
G01X31100Y5000D03*
G01X32100Y6000D03*
G01X31100Y6000D03*
G01X32100Y7000D03*
G01X31100Y7000D03*
G01X32100Y8000D03*
G01X31100Y8000D03*
G01X32100Y9000D03*
G01X31100Y9000D03*
G01X32100Y10000D03*
G54D51*
G01X31100Y10000D03*
G54D48*
G01X18500Y5500D03*
G54D49*
G01X19500Y5500D03*
G01X20500Y5500D03*
G01X21500Y5500D03*
G54D58*
G01X31000Y3000D03*
G54D49*
G01X32000Y3000D03*
G54D50*
G01X8400Y2000D03*
G01X8400Y1000D03*
G01X7400Y2000D03*
G01X7400Y1000D03*
G01X6400Y2000D03*
G01X6400Y1000D03*
G01X5400Y2000D03*
G01X5400Y1000D03*
G01X4400Y2000D03*
G01X4400Y1000D03*
G01X3400Y2000D03*
G54D51*
G01X3400Y1000D03*
G54D50*
G01X1800Y6000D03*
G01X800Y6000D03*
G01X1800Y7000D03*
G01X800Y7000D03*
G01X1800Y8000D03*
G54D51*
G01X800Y8000D03*
G54D58*
G01X17000Y1000D03*
G54D49*
G01X18000Y1000D03*
G54D50*
G01X15000Y1000D03*
G01X14000Y1000D03*
G01X13000Y1000D03*
G01X12000Y1000D03*
G01X11000Y1000D03*
G54D51*
G01X10000Y1000D03*
M00*
M02*
