;PTH Drill file created by EasyEDA 
M48
INCH,LZ,00.0000
;Holesize 1 = 0.012 INCH
T01C0.012
;Holesize 2 = 0.024 INCH
T02C0.024
;Holesize 3 = 0.035 INCH
T03C0.035
;Holesize 4 = 0.043 INCH
T04C0.043
%
G05
G90
T01
X+016757Y+007001
X+008355Y+007071
X+009971Y+003571
X+017360Y+003346
X+014703Y+004946
X+027725Y+002525
X+022248Y+008773
X+024906Y+005732
X+026657Y+005915
X+024357Y+008209
X+015581Y+002782
X+014569Y+002782
X+016972Y+005823
X+018482Y+006259
X+019034Y+008730
X+011630Y+006086
X+025290Y+011321
X+025722Y+011317
X+025573Y+006396
X+020951Y+005778
X+027264Y+006319
X+024940Y+004100
X+026160Y+004405
X+022282Y+006782
X+024936Y+003513
X+021022Y+002988
X+002501Y+004600
X+026771Y+003625
X+028701Y+003946
X+029193Y+004167
X+026065Y+006101
X+028181Y+006265
X+023696Y+005340
X+029364Y+005517
X+026481Y+007459
X+026997Y+007709
X+019990Y+011846
X+028055Y+008767
X+027510Y+010161
X+016756Y+010257
X+027971Y+009117
X+022593Y+013286
X+028272Y+009336
X+025171Y+001278
X+007630Y+008332
X+007632Y+002565
X+008572Y+003326
X+009706Y+006934
X+002928Y+003913
X+003928Y+003809
X+004923Y+003788
X+006869Y+003913
X+011460Y+001726
X+010607Y+002486
X+010607Y+003467
X+007226Y+005992
X+022331Y+008142
X+015250Y+007800
X+005151Y+010288
X+010250Y+007907
X+020606Y+010828
X+015726Y+010825
X+010892Y+010828
X+005625Y+010828
X+017982Y+012778
X+012503Y+009000
X+022971Y+004821
X+028860Y+005011
X+026361Y+007153
X+014978Y+006244
X+007542Y+003871
X+007221Y+005086
X+014698Y+006628
X+014372Y+007800
T02
X+023482Y+013575G85X+023482Y+013338
X+027517Y+013575G85X+027517Y+013338
X+027517Y+012118G85X+027517Y+011881
X+023482Y+012118G85X+023482Y+011881
T03
X+032100Y+005000
X+031100Y+005000
X+032100Y+006000
X+031100Y+006000
X+032100Y+007000
X+031100Y+007000
X+032100Y+008000
X+031100Y+008000
X+032100Y+009000
X+031100Y+009000
X+032100Y+010000
X+031100Y+010000
X+008400Y+002000
X+008400Y+001000
X+007400Y+002000
X+007400Y+001000
X+006400Y+002000
X+006400Y+001000
X+005400Y+002000
X+005400Y+001000
X+004400Y+002000
X+004400Y+001000
X+003400Y+002000
X+003400Y+001000
X+001800Y+006000
X+000800Y+006000
X+001800Y+007000
X+000800Y+007000
X+001800Y+008000
X+000800Y+008000
X+015000Y+001000
X+014000Y+001000
X+013000Y+001000
X+012000Y+001000
X+011000Y+001000
X+010000Y+001000
T04
X+003500Y+012500
X+004500Y+012500
X+005500Y+012500
X+006500Y+012500
X+008500Y+012500
X+009500Y+012500
X+010500Y+012500
X+011500Y+012500
X+013500Y+012500
X+014500Y+012500
X+015500Y+012500
X+016500Y+012500
X+018500Y+012500
X+019500Y+012500
X+020500Y+012500
X+021500Y+012500
X+008500Y+009000
X+009500Y+009000
X+010500Y+009000
X+011500Y+009000
X+003500Y+009000
X+004500Y+009000
X+005500Y+009000
X+006500Y+009000
X+013500Y+009000
X+014500Y+009000
X+015500Y+009000
X+016500Y+009000
X+018500Y+009000
X+019500Y+009000
X+020500Y+009000
X+021500Y+009000
X+003500Y+005500
X+004500Y+005500
X+005500Y+005500
X+006500Y+005500
X+013500Y+005500
X+014500Y+005500
X+015500Y+005500
X+016500Y+005500
X+018500Y+005500
X+019500Y+005500
X+020500Y+005500
X+021500Y+005500
X+031000Y+003000
X+032000Y+003000
X+017000Y+001000
X+018000Y+001000
M30
