G04 ---------------------------- Layer name :BOTTOM PASTER LAYER*
G04 EasyEDA v5.8.22, Tue, 08 Jan 2019 20:33:26 GMT*
G04 129acfe98f9248dba87738b5e980386f*
G04 Gerber Generator version 0.2*
G04 Scale: 100 percent, Rotated: No, Reflected: No *
G04 Dimensions in inches *
G04 leading zeros omitted , absolute positions ,2 integer and 4 decimal *
%FSLAX24Y24*%
%MOIN*%
G90*
G70D02*

%ADD19R,0.057870X0.045670*%
%ADD20R,0.045670X0.057870*%
%ADD30R,0.071000X0.016000*%
%ADD31R,0.016000X0.071000*%

%LPD*%
G54D30*
G01X18639Y3894D03*
G01X18639Y3634D03*
G01X18639Y3384D03*
G01X18639Y3125D03*
G01X18639Y2865D03*
G01X18639Y2615D03*
G01X18639Y2355D03*
G01X18639Y2105D03*
G01X16360Y2105D03*
G01X16360Y2355D03*
G01X16360Y2615D03*
G01X16360Y2865D03*
G01X16360Y3125D03*
G01X16360Y3384D03*
G01X16360Y3634D03*
G01X16360Y3894D03*
G54D31*
G01X11894Y4359D03*
G01X11635Y4359D03*
G01X11385Y4359D03*
G01X11125Y4359D03*
G01X10864Y4359D03*
G01X10614Y4359D03*
G01X10355Y4359D03*
G01X10105Y4359D03*
G01X10105Y6640D03*
G01X10355Y6640D03*
G01X10614Y6640D03*
G01X10864Y6640D03*
G01X11125Y6640D03*
G01X11385Y6640D03*
G01X11635Y6640D03*
G01X11894Y6640D03*
G36*
G01X28539Y3748D02*
G01X28217Y3426D01*
G01X28626Y3017D01*
G01X28948Y3340D01*
G01X28539Y3748D01*
G37*
G36*
G01X27973Y3182D02*
G01X27651Y2859D01*
G01X28060Y2451D01*
G01X28382Y2773D01*
G01X27973Y3182D01*
G37*
G36*
G01X29660Y4051D02*
G01X29982Y4373D01*
G01X29573Y4782D01*
G01X29251Y4459D01*
G01X29660Y4051D01*
G37*
G36*
G01X30226Y4617D02*
G01X30548Y4940D01*
G01X30139Y5348D01*
G01X29817Y5026D01*
G01X30226Y4617D01*
G37*
G54D20*
G01X26000Y10800D03*
G01X26800Y10800D03*
G01X25200Y10800D03*
G01X24400Y10800D03*
G54D19*
G01X3400Y3099D03*
G01X3400Y3899D03*
G01X4400Y3099D03*
G01X4400Y3899D03*
G01X5400Y3099D03*
G01X5400Y3899D03*
G01X6400Y3099D03*
G01X6400Y3899D03*
G01X12000Y2099D03*
G01X12000Y2899D03*
G01X11000Y2099D03*
G01X11000Y2899D03*
G01X10000Y2099D03*
G01X10000Y2899D03*
G01X7700Y5099D03*
G01X7700Y5899D03*
G54D20*
G01X21500Y7800D03*
G01X20700Y7800D03*
G01X16500Y7800D03*
G01X15700Y7800D03*
G01X6500Y7800D03*
G01X5700Y7800D03*
G01X11500Y7800D03*
G01X10700Y7800D03*
G01X21500Y11300D03*
G01X20700Y11300D03*
G01X16500Y11300D03*
G01X15700Y11300D03*
G01X11500Y11300D03*
G01X10700Y11300D03*
G01X6500Y11300D03*
G01X5700Y11300D03*
M00*
M02*
