G04 ---------------------------- Layer name :TOP SOLDER LAYER*
G04 EasyEDA v5.8.22, Tue, 08 Jan 2019 20:33:26 GMT*
G04 129acfe98f9248dba87738b5e980386f*
G04 Gerber Generator version 0.2*
G04 Scale: 100 percent, Rotated: No, Reflected: No *
G04 Dimensions in inches *
G04 leading zeros omitted , absolute positions ,2 integer and 4 decimal *
%FSLAX24Y24*%
%MOIN*%
G90*
G70D02*

%ADD43C,0.059181*%
%ADD44C,0.024535*%
%ADD45R,0.025717X0.086740*%
%ADD46R,0.051307X0.086740*%
%ADD47R,0.071000X0.078900*%
%ADD48R,0.074929X0.074929*%
%ADD49C,0.074929*%
%ADD50C,0.070000*%
%ADD51R,0.070000X0.070000*%
%ADD52R,0.063100X0.059200*%
%ADD53R,0.059200X0.063100*%
%ADD54R,0.065870X0.053670*%
%ADD56R,0.039496X0.106425*%
%ADD58R,0.074929X0.070000*%
%ADD59R,0.067055X0.047370*%

%LPD*%
G54D43*
G01X23482Y13279D02*
G01X23482Y13634D01*
G01X27517Y13279D02*
G01X27517Y13634D01*
G01X27517Y11822D02*
G01X27517Y12177D01*
G01X23482Y11822D02*
G01X23482Y12177D01*
G54D44*
G01X23649Y5876D02*
G01X23977Y6204D01*
G01X23872Y5653D02*
G01X24200Y5982D01*
G01X24094Y5431D02*
G01X24423Y5759D01*
G01X24317Y5208D02*
G01X24645Y5536D01*
G01X24540Y4985D02*
G01X24868Y5314D01*
G01X24762Y4762D02*
G01X25091Y5091D01*
G01X24985Y4540D02*
G01X25314Y4868D01*
G01X25208Y4317D02*
G01X25536Y4645D01*
G01X25431Y4094D02*
G01X25759Y4423D01*
G01X25653Y3872D02*
G01X25982Y4200D01*
G01X25876Y3649D02*
G01X26204Y3977D01*
G01X26795Y3977D02*
G01X27123Y3649D01*
G01X27017Y4200D02*
G01X27346Y3872D01*
G01X27240Y4423D02*
G01X27568Y4094D01*
G01X27463Y4645D02*
G01X27791Y4317D01*
G01X27685Y4868D02*
G01X28014Y4540D01*
G01X27908Y5091D02*
G01X28237Y4762D01*
G01X28131Y5314D02*
G01X28459Y4985D01*
G01X28354Y5536D02*
G01X28682Y5208D01*
G01X28576Y5759D02*
G01X28905Y5431D01*
G01X28799Y5982D02*
G01X29127Y5653D01*
G01X29022Y6204D02*
G01X29350Y5876D01*
G01X29022Y6795D02*
G01X29350Y7123D01*
G01X28799Y7017D02*
G01X29127Y7346D01*
G01X28576Y7240D02*
G01X28905Y7568D01*
G01X28354Y7463D02*
G01X28682Y7791D01*
G01X28131Y7685D02*
G01X28459Y8014D01*
G01X27908Y7908D02*
G01X28237Y8237D01*
G01X27685Y8131D02*
G01X28014Y8459D01*
G01X27463Y8354D02*
G01X27791Y8682D01*
G01X27240Y8576D02*
G01X27568Y8905D01*
G01X27017Y8799D02*
G01X27346Y9127D01*
G01X26795Y9022D02*
G01X27123Y9350D01*
G01X25876Y9350D02*
G01X26204Y9022D01*
G01X25653Y9127D02*
G01X25982Y8799D01*
G01X25431Y8905D02*
G01X25759Y8576D01*
G01X25208Y8682D02*
G01X25536Y8354D01*
G01X24985Y8459D02*
G01X25314Y8131D01*
G01X24762Y8237D02*
G01X25091Y7908D01*
G01X24540Y8014D02*
G01X24868Y7685D01*
G01X24317Y7791D02*
G01X24645Y7463D01*
G01X24094Y7568D02*
G01X24423Y7240D01*
G01X23872Y7346D02*
G01X24200Y7017D01*
G01X23649Y7123D02*
G01X23977Y6795D01*
G54D45*
G01X24978Y11901D03*
G01X25234Y11901D03*
G01X25490Y11901D03*
G01X25746Y11901D03*
G01X26002Y11901D03*
G54D46*
G01X26395Y11901D03*
G01X24584Y11901D03*
G54D47*
G01X26050Y10700D03*
G01X27150Y10700D03*
G54D48*
G01X3500Y12500D03*
G54D49*
G01X4500Y12500D03*
G01X5500Y12500D03*
G01X6500Y12500D03*
G54D48*
G01X8500Y12500D03*
G54D49*
G01X9500Y12500D03*
G01X10500Y12500D03*
G01X11500Y12500D03*
G54D48*
G01X13500Y12500D03*
G54D49*
G01X14500Y12500D03*
G01X15500Y12500D03*
G01X16500Y12500D03*
G54D48*
G01X18500Y12500D03*
G54D49*
G01X19500Y12500D03*
G01X20500Y12500D03*
G01X21500Y12500D03*
G54D48*
G01X8500Y9000D03*
G54D49*
G01X9500Y9000D03*
G01X10500Y9000D03*
G01X11500Y9000D03*
G54D48*
G01X3500Y9000D03*
G54D49*
G01X4500Y9000D03*
G01X5500Y9000D03*
G01X6500Y9000D03*
G54D48*
G01X13500Y9000D03*
G54D49*
G01X14500Y9000D03*
G01X15500Y9000D03*
G01X16500Y9000D03*
G54D48*
G01X18500Y9000D03*
G54D49*
G01X19500Y9000D03*
G01X20500Y9000D03*
G01X21500Y9000D03*
G54D48*
G01X3500Y5500D03*
G54D49*
G01X4500Y5500D03*
G01X5500Y5500D03*
G01X6500Y5500D03*
G54D48*
G01X13500Y5500D03*
G54D49*
G01X14500Y5500D03*
G01X15500Y5500D03*
G01X16500Y5500D03*
G54D50*
G01X32100Y5000D03*
G01X31100Y5000D03*
G01X32100Y6000D03*
G01X31100Y6000D03*
G01X32100Y7000D03*
G01X31100Y7000D03*
G01X32100Y8000D03*
G01X31100Y8000D03*
G01X32100Y9000D03*
G01X31100Y9000D03*
G01X32100Y10000D03*
G54D51*
G01X31100Y10000D03*
G54D48*
G01X18500Y5500D03*
G54D49*
G01X19500Y5500D03*
G01X20500Y5500D03*
G01X21500Y5500D03*
G54D52*
G01X3400Y3913D03*
G01X3400Y3086D03*
G01X4400Y3913D03*
G01X4400Y3086D03*
G01X5400Y3913D03*
G01X5400Y3086D03*
G01X6400Y3913D03*
G01X6400Y3086D03*
G01X10000Y2913D03*
G01X10000Y2086D03*
G01X11000Y2900D03*
G01X11000Y2073D03*
G01X12000Y2913D03*
G01X12000Y2086D03*
G01X7700Y5913D03*
G01X7700Y5086D03*
G54D53*
G01X20686Y7800D03*
G01X21513Y7800D03*
G01X15686Y7800D03*
G01X16513Y7800D03*
G01X5686Y7800D03*
G01X6513Y7800D03*
G01X10686Y7800D03*
G01X11513Y7800D03*
G01X20686Y11300D03*
G01X21513Y11300D03*
G01X15686Y11300D03*
G01X16513Y11300D03*
G01X10686Y11300D03*
G01X11513Y11300D03*
G01X5686Y11300D03*
G01X6513Y11300D03*
G54D54*
G01X24000Y899D03*
G01X24000Y1699D03*
G01X23000Y899D03*
G01X23000Y1699D03*
G36*
G01X23860Y4948D02*
G01X24183Y4626D01*
G01X23774Y4216D01*
G01X23451Y4539D01*
G01X23860Y4948D01*
G37*
G36*
G01X24425Y4383D02*
G01X24748Y4060D01*
G01X24339Y3651D01*
G01X24016Y3974D01*
G01X24425Y4383D01*
G37*
G01X29500Y10400D03*
G01X29500Y9600D03*
G01X29000Y1700D03*
G01X29000Y900D03*
G01X30000Y1700D03*
G01X30000Y900D03*
G01X23000Y2700D03*
G01X23000Y3500D03*
G54D56*
G01X29500Y11725D03*
G01X29500Y13275D03*
G36*
G01X27983Y3451D02*
G01X28456Y3925D01*
G01X29124Y3256D01*
G01X28651Y2783D01*
G01X27983Y3451D01*
G37*
G36*
G01X29075Y4543D02*
G01X29548Y5016D01*
G01X30216Y4348D01*
G01X29743Y3874D01*
G01X29075Y4543D01*
G37*
G54D58*
G01X31000Y3000D03*
G54D49*
G01X32000Y3000D03*
G54D50*
G01X8400Y2000D03*
G01X8400Y1000D03*
G01X7400Y2000D03*
G01X7400Y1000D03*
G01X6400Y2000D03*
G01X6400Y1000D03*
G01X5400Y2000D03*
G01X5400Y1000D03*
G01X4400Y2000D03*
G01X4400Y1000D03*
G01X3400Y2000D03*
G54D51*
G01X3400Y1000D03*
G54D59*
G01X28074Y900D03*
G01X24925Y900D03*
G54D50*
G01X1800Y6000D03*
G01X800Y6000D03*
G01X1800Y7000D03*
G01X800Y7000D03*
G01X1800Y8000D03*
G54D51*
G01X800Y8000D03*
G54D58*
G01X17000Y1000D03*
G54D49*
G01X18000Y1000D03*
G54D50*
G01X15000Y1000D03*
G01X14000Y1000D03*
G01X13000Y1000D03*
G01X12000Y1000D03*
G01X11000Y1000D03*
G54D51*
G01X10000Y1000D03*
M00*
M02*
