G04 ---------------------------- Layer name :TOP SILK LAYER*
G04 EasyEDA v5.8.22, Tue, 08 Jan 2019 20:33:26 GMT*
G04 129acfe98f9248dba87738b5e980386f*
G04 Gerber Generator version 0.2*
G04 Scale: 100 percent, Rotated: No, Reflected: No *
G04 Dimensions in inches *
G04 leading zeros omitted , absolute positions ,2 integer and 4 decimal *
%FSLAX24Y24*%
%MOIN*%
G90*
G70D02*

%ADD10C,0.010000*%
%ADD32C,0.007874*%
%ADD33C,0.008000*%
%ADD34C,0.007870*%
%ADD35C,0.003937*%
%ADD36C,0.004000*%
%ADD37C,0.007992*%
%ADD38C,0.007008*%
%ADD39C,0.007000*%
%ADD40C,0.023622*%
%ADD41C,0.011811*%
%ADD42C,0.005000*%

%LPD*%

%LPD*%
G36*
G01X12531Y5078D02*
G01X12161Y5078D01*
G01X12161Y5278D01*
G01X12235Y5278D01*
G01X12235Y5642D01*
G01X12161Y5642D01*
G01X12161Y5850D01*
G01X12344Y5848D01*
G01X12528Y5846D01*
G01X12530Y5744D01*
G01X12532Y5642D01*
G01X12457Y5642D01*
G01X12457Y5278D01*
G01X12531Y5278D01*
G01X12531Y5078D01*
G37*

%LPC*%
G36*
G01X12198Y5241D02*
G01X12198Y5115D01*
G01X12487Y5115D01*
G01X12487Y5241D01*
G01X12413Y5241D01*
G01X12415Y5462D01*
G01X12417Y5682D01*
G01X12452Y5685D01*
G01X12487Y5687D01*
G01X12487Y5805D01*
G01X12198Y5805D01*
G01X12198Y5686D01*
G01X12272Y5686D01*
G01X12272Y5241D01*
G01X12198Y5241D01*
G37*

%LPD*%
G36*
G01X11724Y5078D02*
G01X11376Y5078D01*
G01X11376Y5278D01*
G01X11450Y5278D01*
G01X11450Y5642D01*
G01X11376Y5642D01*
G01X11376Y5741D01*
G01X11377Y5780D01*
G01X11377Y5812D01*
G01X11379Y5835D01*
G01X11381Y5845D01*
G01X11391Y5846D01*
G01X11415Y5848D01*
G01X11450Y5849D01*
G01X11492Y5850D01*
G01X11542Y5850D01*
G01X11561Y5849D01*
G01X11576Y5848D01*
G01X11589Y5846D01*
G01X11599Y5842D01*
G01X11609Y5835D01*
G01X11619Y5827D01*
G01X11629Y5815D01*
G01X11640Y5801D01*
G01X11654Y5783D01*
G01X11671Y5761D01*
G01X11688Y5738D01*
G01X11703Y5719D01*
G01X11714Y5704D01*
G01X11721Y5696D01*
G01X11728Y5688D01*
G01X11742Y5670D01*
G01X11761Y5645D01*
G01X11784Y5617D01*
G01X11839Y5545D01*
G01X11843Y5696D01*
G01X11846Y5846D01*
G01X12128Y5846D01*
G01X12130Y5744D01*
G01X12132Y5642D01*
G01X12057Y5642D01*
G01X12057Y5078D01*
G01X11989Y5078D01*
G01X11921Y5078D01*
G01X11795Y5237D01*
G01X11770Y5269D01*
G01X11746Y5299D01*
G01X11725Y5326D01*
G01X11706Y5350D01*
G01X11690Y5369D01*
G01X11678Y5384D01*
G01X11671Y5394D01*
G01X11668Y5397D01*
G01X11667Y5392D01*
G01X11666Y5379D01*
G01X11665Y5360D01*
G01X11665Y5337D01*
G01X11665Y5278D01*
G01X11724Y5278D01*
G01X11724Y5078D01*
G37*

%LPC*%
G36*
G01X11413Y5241D02*
G01X11413Y5115D01*
G01X11687Y5115D01*
G01X11687Y5241D01*
G01X11621Y5241D01*
G01X11621Y5378D01*
G01X11621Y5432D01*
G01X11622Y5475D01*
G01X11624Y5505D01*
G01X11626Y5515D01*
G01X11632Y5510D01*
G01X11645Y5495D01*
G01X11663Y5474D01*
G01X11684Y5448D01*
G01X11695Y5433D01*
G01X11707Y5417D01*
G01X11721Y5400D01*
G01X11734Y5382D01*
G01X11748Y5365D01*
G01X11761Y5348D01*
G01X11773Y5333D01*
G01X11784Y5319D01*
G01X11794Y5305D01*
G01X11806Y5290D01*
G01X11820Y5273D01*
G01X11834Y5255D01*
G01X11848Y5237D01*
G01X11862Y5219D01*
G01X11875Y5202D01*
G01X11887Y5186D01*
G01X11943Y5115D01*
G01X11978Y5115D01*
G01X12013Y5115D01*
G01X12015Y5398D01*
G01X12017Y5682D01*
G01X12052Y5685D01*
G01X12087Y5687D01*
G01X12087Y5805D01*
G01X11880Y5805D01*
G01X11876Y5432D01*
G01X11769Y5569D01*
G01X11747Y5597D01*
G01X11726Y5624D01*
G01X11705Y5650D01*
G01X11686Y5675D01*
G01X11669Y5696D01*
G01X11654Y5715D01*
G01X11643Y5729D01*
G01X11635Y5738D01*
G01X11624Y5753D01*
G01X11613Y5767D01*
G01X11604Y5779D01*
G01X11598Y5788D01*
G01X11590Y5798D01*
G01X11576Y5803D01*
G01X11549Y5805D01*
G01X11500Y5805D01*
G01X11413Y5805D01*
G01X11413Y5686D01*
G01X11487Y5686D01*
G01X11487Y5241D01*
G01X11413Y5241D01*
G37*

%LPD*%
G36*
G01X10154Y5078D02*
G01X9806Y5078D01*
G01X9806Y5278D01*
G01X9880Y5278D01*
G01X9880Y5642D01*
G01X9806Y5642D01*
G01X9806Y5741D01*
G01X9806Y5780D01*
G01X9807Y5812D01*
G01X9809Y5835D01*
G01X9811Y5845D01*
G01X9817Y5846D01*
G01X9832Y5847D01*
G01X9855Y5848D01*
G01X9882Y5849D01*
G01X9914Y5849D01*
G01X9947Y5850D01*
G01X9980Y5850D01*
G01X10012Y5849D01*
G01X10041Y5848D01*
G01X10064Y5848D01*
G01X10082Y5846D01*
G01X10090Y5845D01*
G01X10095Y5843D01*
G01X10099Y5840D01*
G01X10101Y5838D01*
G01X10102Y5836D01*
G01X10107Y5825D01*
G01X10119Y5801D01*
G01X10138Y5766D01*
G01X10160Y5725D01*
G01X10188Y5676D01*
G01X10207Y5645D01*
G01X10219Y5630D01*
G01X10226Y5628D01*
G01X10233Y5640D01*
G01X10247Y5665D01*
G01X10266Y5698D01*
G01X10288Y5738D01*
G01X10309Y5778D01*
G01X10328Y5811D01*
G01X10342Y5834D01*
G01X10350Y5844D01*
G01X10364Y5846D01*
G01X10396Y5848D01*
G01X10441Y5848D01*
G01X10495Y5848D01*
G01X10632Y5846D01*
G01X10634Y5744D01*
G01X10636Y5642D01*
G01X10561Y5642D01*
G01X10561Y5278D01*
G01X10635Y5278D01*
G01X10635Y5078D01*
G01X10287Y5078D01*
G01X10287Y5278D01*
G01X10339Y5278D01*
G01X10339Y5350D01*
G01X10339Y5423D01*
G01X10312Y5375D01*
G01X10300Y5353D01*
G01X10287Y5330D01*
G01X10275Y5307D01*
G01X10264Y5289D01*
G01X10253Y5269D01*
G01X10243Y5258D01*
G01X10233Y5253D01*
G01X10220Y5252D01*
G01X10206Y5254D01*
G01X10193Y5263D01*
G01X10177Y5286D01*
G01X10153Y5329D01*
G01X10136Y5359D01*
G01X10122Y5384D01*
G01X10111Y5402D01*
G01X10106Y5410D01*
G01X10105Y5406D01*
G01X10103Y5393D01*
G01X10102Y5372D01*
G01X10102Y5346D01*
G01X10102Y5278D01*
G01X10154Y5278D01*
G01X10154Y5078D01*
G37*

%LPC*%
G36*
G01X9850Y5241D02*
G01X9850Y5115D01*
G01X10113Y5115D01*
G01X10111Y5178D01*
G01X10109Y5241D01*
G01X10058Y5241D01*
G01X10058Y5409D01*
G01X10058Y5444D01*
G01X10058Y5476D01*
G01X10059Y5504D01*
G01X10060Y5528D01*
G01X10060Y5547D01*
G01X10061Y5561D01*
G01X10063Y5569D01*
G01X10064Y5571D01*
G01X10068Y5566D01*
G01X10074Y5555D01*
G01X10083Y5539D01*
G01X10095Y5519D01*
G01X10108Y5496D01*
G01X10122Y5470D01*
G01X10137Y5443D01*
G01X10152Y5416D01*
G01X10167Y5389D01*
G01X10181Y5363D01*
G01X10194Y5340D01*
G01X10204Y5320D01*
G01X10219Y5292D01*
G01X10262Y5368D01*
G01X10290Y5419D01*
G01X10314Y5462D01*
G01X10334Y5498D01*
G01X10350Y5526D01*
G01X10363Y5548D01*
G01X10372Y5563D01*
G01X10378Y5572D01*
G01X10381Y5575D01*
G01X10381Y5571D01*
G01X10382Y5562D01*
G01X10382Y5546D01*
G01X10383Y5526D01*
G01X10383Y5501D01*
G01X10383Y5473D01*
G01X10384Y5442D01*
G01X10384Y5241D01*
G01X10324Y5241D01*
G01X10324Y5115D01*
G01X10591Y5115D01*
G01X10591Y5241D01*
G01X10517Y5241D01*
G01X10519Y5462D01*
G01X10521Y5682D01*
G01X10556Y5685D01*
G01X10591Y5687D01*
G01X10591Y5805D01*
G01X10370Y5805D01*
G01X10331Y5733D01*
G01X10314Y5702D01*
G01X10297Y5671D01*
G01X10282Y5643D01*
G01X10271Y5623D01*
G01X10261Y5607D01*
G01X10252Y5590D01*
G01X10244Y5574D01*
G01X10238Y5562D01*
G01X10232Y5553D01*
G01X10228Y5545D01*
G01X10224Y5540D01*
G01X10221Y5538D01*
G01X10218Y5540D01*
G01X10214Y5545D01*
G01X10209Y5553D01*
G01X10203Y5562D01*
G01X10197Y5574D01*
G01X10188Y5590D01*
G01X10177Y5609D01*
G01X10165Y5631D01*
G01X10152Y5655D01*
G01X10139Y5678D01*
G01X10126Y5702D01*
G01X10114Y5725D01*
G01X10103Y5745D01*
G01X10093Y5763D01*
G01X10086Y5776D01*
G01X10082Y5785D01*
G01X10072Y5805D01*
G01X9850Y5805D01*
G01X9850Y5686D01*
G01X9917Y5686D01*
G01X9917Y5241D01*
G01X9850Y5241D01*
G37*

%LPD*%
G36*
G01X9777Y5078D02*
G01X9213Y5078D01*
G01X9213Y5278D01*
G01X9287Y5278D01*
G01X9287Y5642D01*
G01X9213Y5642D01*
G01X9213Y5741D01*
G01X9214Y5780D01*
G01X9215Y5812D01*
G01X9216Y5835D01*
G01X9218Y5845D01*
G01X9222Y5846D01*
G01X9230Y5846D01*
G01X9242Y5846D01*
G01X9259Y5847D01*
G01X9279Y5848D01*
G01X9302Y5848D01*
G01X9329Y5848D01*
G01X9359Y5848D01*
G01X9391Y5848D01*
G01X9425Y5848D01*
G01X9461Y5848D01*
G01X9498Y5848D01*
G01X9772Y5846D01*
G01X9775Y5740D01*
G01X9777Y5634D01*
G01X9510Y5634D01*
G01X9510Y5567D01*
G01X9710Y5567D01*
G01X9710Y5352D01*
G01X9510Y5352D01*
G01X9510Y5293D01*
G01X9641Y5291D01*
G01X9772Y5289D01*
G01X9775Y5183D01*
G01X9777Y5078D01*
G37*

%LPC*%
G36*
G01X9258Y5241D02*
G01X9258Y5115D01*
G01X9739Y5115D01*
G01X9739Y5248D01*
G01X9472Y5248D01*
G01X9472Y5397D01*
G01X9672Y5397D01*
G01X9672Y5523D01*
G01X9574Y5525D01*
G01X9476Y5527D01*
G01X9474Y5599D01*
G01X9472Y5671D01*
G01X9739Y5671D01*
G01X9739Y5805D01*
G01X9258Y5805D01*
G01X9258Y5687D01*
G01X9293Y5685D01*
G01X9328Y5682D01*
G01X9330Y5462D01*
G01X9332Y5241D01*
G01X9258Y5241D01*
G37*

%LPD*%
G36*
G01X8813Y5078D02*
G01X8532Y5078D01*
G01X8532Y5278D01*
G01X8606Y5278D01*
G01X8606Y5642D01*
G01X8532Y5642D01*
G01X8532Y5741D01*
G01X8532Y5780D01*
G01X8534Y5812D01*
G01X8535Y5835D01*
G01X8538Y5845D01*
G01X8543Y5846D01*
G01X8557Y5847D01*
G01X8578Y5848D01*
G01X8606Y5848D01*
G01X8639Y5849D01*
G01X8676Y5849D01*
G01X8718Y5849D01*
G01X8761Y5848D01*
G01X8980Y5846D01*
G01X9022Y5825D01*
G01X9043Y5814D01*
G01X9063Y5801D01*
G01X9081Y5786D01*
G01X9097Y5771D01*
G01X9113Y5754D01*
G01X9126Y5736D01*
G01X9137Y5717D01*
G01X9147Y5697D01*
G01X9155Y5676D01*
G01X9161Y5654D01*
G01X9165Y5632D01*
G01X9168Y5608D01*
G01X9168Y5582D01*
G01X9167Y5559D01*
G01X9163Y5539D01*
G01X9156Y5519D01*
G01X9142Y5481D01*
G01X9159Y5456D01*
G01X9170Y5438D01*
G01X9179Y5419D01*
G01X9186Y5400D01*
G01X9191Y5380D01*
G01X9195Y5360D01*
G01X9197Y5339D01*
G01X9196Y5318D01*
G01X9194Y5298D01*
G01X9191Y5277D01*
G01X9185Y5256D01*
G01X9178Y5236D01*
G01X9169Y5216D01*
G01X9159Y5197D01*
G01X9147Y5179D01*
G01X9133Y5161D01*
G01X9118Y5145D01*
G01X9106Y5133D01*
G01X9094Y5123D01*
G01X9084Y5115D01*
G01X9073Y5107D01*
G01X9061Y5101D01*
G01X9048Y5095D01*
G01X9035Y5090D01*
G01X9018Y5087D01*
G01X9000Y5084D01*
G01X8978Y5082D01*
G01X8954Y5080D01*
G01X8926Y5079D01*
G01X8893Y5078D01*
G01X8856Y5078D01*
G01X8813Y5078D01*
G37*

%LPC*%
G36*
G01X8576Y5241D02*
G01X8576Y5114D01*
G01X8785Y5116D01*
G01X8852Y5117D01*
G01X8903Y5118D01*
G01X8942Y5119D01*
G01X8971Y5120D01*
G01X8991Y5123D01*
G01X9006Y5126D01*
G01X9019Y5130D01*
G01X9032Y5135D01*
G01X9063Y5152D01*
G01X9088Y5172D01*
G01X9110Y5196D01*
G01X9131Y5226D01*
G01X9141Y5246D01*
G01X9147Y5265D01*
G01X9150Y5288D01*
G01X9150Y5323D01*
G01X9150Y5346D01*
G01X9148Y5367D01*
G01X9144Y5386D01*
G01X9140Y5403D01*
G01X9134Y5418D01*
G01X9126Y5433D01*
G01X9115Y5447D01*
G01X9103Y5461D01*
G01X9095Y5470D01*
G01X9093Y5477D01*
G01X9095Y5486D01*
G01X9102Y5498D01*
G01X9117Y5530D01*
G01X9126Y5565D01*
G01X9128Y5601D01*
G01X9124Y5636D01*
G01X9117Y5663D01*
G01X9108Y5686D01*
G01X9097Y5707D01*
G01X9085Y5726D01*
G01X9070Y5742D01*
G01X9052Y5757D01*
G01X9032Y5771D01*
G01X9010Y5783D01*
G01X8963Y5805D01*
G01X8576Y5805D01*
G01X8576Y5687D01*
G01X8611Y5685D01*
G01X8647Y5682D01*
G01X8649Y5462D01*
G01X8651Y5241D01*
G01X8576Y5241D01*
G37*

%LPD*%
G36*
G01X10812Y5078D02*
G01X10658Y5078D01*
G01X10658Y5278D01*
G01X10731Y5278D01*
G01X10806Y5510D01*
G01X10816Y5542D01*
G01X10827Y5573D01*
G01X10836Y5605D01*
G01X10846Y5635D01*
G01X10856Y5663D01*
G01X10864Y5691D01*
G01X10872Y5716D01*
G01X10880Y5739D01*
G01X10886Y5759D01*
G01X10892Y5776D01*
G01X10896Y5790D01*
G01X10900Y5800D01*
G01X10918Y5857D01*
G01X11093Y5857D01*
G01X11156Y5662D01*
G01X11165Y5635D01*
G01X11174Y5607D01*
G01X11183Y5579D01*
G01X11192Y5551D01*
G01X11201Y5523D01*
G01X11210Y5497D01*
G01X11218Y5471D01*
G01X11226Y5447D01*
G01X11233Y5425D01*
G01X11240Y5405D01*
G01X11246Y5387D01*
G01X11250Y5373D01*
G01X11281Y5278D01*
G01X11354Y5278D01*
G01X11354Y5078D01*
G01X11134Y5078D01*
G01X11119Y5120D01*
G01X11105Y5163D01*
G01X10907Y5163D01*
G01X10894Y5122D01*
G01X10889Y5106D01*
G01X10884Y5092D01*
G01X10881Y5083D01*
G01X10880Y5079D01*
G01X10871Y5078D01*
G01X10847Y5078D01*
G01X10812Y5078D01*
G37*

%LPC*%
G36*
G01X10702Y5240D02*
G01X10702Y5115D01*
G01X10849Y5115D01*
G01X10878Y5207D01*
G01X11002Y5209D01*
G01X11048Y5210D01*
G01X11081Y5210D01*
G01X11105Y5209D01*
G01X11122Y5205D01*
G01X11132Y5199D01*
G01X11139Y5189D01*
G01X11145Y5174D01*
G01X11151Y5153D01*
G01X11163Y5115D01*
G01X11309Y5115D01*
G01X11309Y5241D01*
G01X11281Y5241D01*
G01X11276Y5240D01*
G01X11272Y5240D01*
G01X11268Y5240D01*
G01X11264Y5239D01*
G01X11261Y5240D01*
G01X11258Y5242D01*
G01X11255Y5245D01*
G01X11251Y5251D01*
G01X11247Y5258D01*
G01X11243Y5268D01*
G01X11238Y5281D01*
G01X11232Y5297D01*
G01X11225Y5317D01*
G01X11217Y5342D01*
G01X11207Y5370D01*
G01X11196Y5403D01*
G01X11184Y5442D01*
G01X11170Y5486D01*
G01X11153Y5536D01*
G01X11135Y5592D01*
G01X11064Y5813D01*
G01X10947Y5813D01*
G01X10883Y5614D01*
G01X10875Y5586D01*
G01X10865Y5558D01*
G01X10847Y5502D01*
G01X10839Y5475D01*
G01X10830Y5448D01*
G01X10822Y5423D01*
G01X10814Y5400D01*
G01X10807Y5379D01*
G01X10801Y5360D01*
G01X10796Y5343D01*
G01X10792Y5330D01*
G01X10764Y5244D01*
G01X10733Y5242D01*
G01X10702Y5240D01*
G37*

%LPD*%
G36*
G01X8862Y5233D02*
G01X8791Y5233D01*
G01X8791Y5411D01*
G01X8948Y5411D01*
G01X8973Y5386D01*
G01X8986Y5372D01*
G01X8994Y5359D01*
G01X8998Y5344D01*
G01X8998Y5325D01*
G01X8997Y5301D01*
G01X8992Y5281D01*
G01X8983Y5265D01*
G01X8969Y5253D01*
G01X8951Y5244D01*
G01X8927Y5238D01*
G01X8898Y5234D01*
G01X8862Y5233D01*
G37*

%LPC*%
G36*
G01X8828Y5321D02*
G01X8828Y5278D01*
G01X8882Y5278D01*
G01X8910Y5278D01*
G01X8928Y5281D01*
G01X8941Y5285D01*
G01X8949Y5292D01*
G01X8959Y5308D01*
G01X8961Y5326D01*
G01X8955Y5344D01*
G01X8942Y5359D01*
G01X8931Y5366D01*
G01X8918Y5371D01*
G01X8901Y5374D01*
G01X8880Y5375D01*
G01X8864Y5374D01*
G01X8849Y5373D01*
G01X8838Y5371D01*
G01X8833Y5369D01*
G01X8831Y5364D01*
G01X8830Y5353D01*
G01X8828Y5338D01*
G01X8828Y5321D01*
G37*

%LPD*%
G36*
G01X11094Y5323D02*
G01X10918Y5323D01*
G01X10960Y5448D01*
G01X10977Y5498D01*
G01X10991Y5538D01*
G01X11001Y5565D01*
G01X11006Y5575D01*
G01X11009Y5571D01*
G01X11014Y5559D01*
G01X11021Y5542D01*
G01X11028Y5521D01*
G01X11036Y5494D01*
G01X11047Y5462D01*
G01X11059Y5427D01*
G01X11069Y5395D01*
G01X11094Y5323D01*
G37*

%LPC*%
G36*
G01X10982Y5368D02*
G01X10989Y5367D01*
G01X10997Y5368D01*
G01X11008Y5368D01*
G01X11033Y5371D01*
G01X11021Y5411D01*
G01X11015Y5426D01*
G01X11010Y5437D01*
G01X11006Y5444D01*
G01X11004Y5444D01*
G01X10996Y5427D01*
G01X10988Y5403D01*
G01X10981Y5380D01*
G01X10979Y5369D01*
G01X10982Y5368D01*
G37*

%LPD*%
G36*
G01X8847Y5508D02*
G01X8791Y5508D01*
G01X8791Y5686D01*
G01X8851Y5686D01*
G01X8896Y5684D01*
G01X8928Y5676D01*
G01X8950Y5660D01*
G01X8966Y5636D01*
G01X8973Y5611D01*
G01X8974Y5586D01*
G01X8968Y5563D01*
G01X8956Y5544D01*
G01X8937Y5527D01*
G01X8914Y5516D01*
G01X8885Y5510D01*
G01X8847Y5508D01*
G37*

%LPC*%
G36*
G01X8828Y5649D02*
G01X8828Y5553D01*
G01X8868Y5553D01*
G01X8897Y5555D01*
G01X8917Y5563D01*
G01X8928Y5578D01*
G01X8932Y5598D01*
G01X8931Y5612D01*
G01X8926Y5623D01*
G01X8918Y5632D01*
G01X8905Y5641D01*
G01X8896Y5644D01*
G01X8884Y5647D01*
G01X8871Y5648D01*
G01X8858Y5649D01*
G01X8828Y5649D01*
G37*

%LPD*%
G54D10*
G01X23500Y12900D02*
G01X23500Y12600D01*
G01X27500Y12900D02*
G01X27500Y12600D01*
G01X26700Y12000D02*
G01X27200Y12000D01*
G01X24300Y12000D02*
G01X23800Y12000D01*
G54D32*
G01X26500Y8977D02*
G01X28977Y6500D01*
G01X26500Y4022D01*
G01X24022Y6500D01*
G01X26500Y8977D01*
G54D10*
G01X26300Y11200D02*
G01X25600Y11200D01*
G01X25600Y10200D01*
G01X26300Y10200D01*
G01X26900Y10200D02*
G01X27600Y10200D01*
G01X27600Y11200D01*
G01X26900Y11200D01*
G01X2900Y13100D02*
G01X7100Y13100D01*
G01X7100Y11900D01*
G01X2900Y11900D01*
G01X2900Y13100D01*
G01X4000Y13100D02*
G01X4000Y11900D01*
G01X7900Y13100D02*
G01X12100Y13100D01*
G01X12100Y11900D01*
G01X7900Y11900D01*
G01X7900Y13100D01*
G01X9000Y13100D02*
G01X9000Y11900D01*
G01X12900Y13100D02*
G01X17100Y13100D01*
G01X17100Y11900D01*
G01X12900Y11900D01*
G01X12900Y13100D01*
G01X14000Y13100D02*
G01X14000Y11900D01*
G01X17900Y13100D02*
G01X22100Y13100D01*
G01X22100Y11900D01*
G01X17900Y11900D01*
G01X17900Y13100D01*
G01X19000Y13100D02*
G01X19000Y11900D01*
G01X7900Y9600D02*
G01X12100Y9600D01*
G01X12100Y8400D01*
G01X7900Y8400D01*
G01X7900Y9600D01*
G01X9000Y9600D02*
G01X9000Y8400D01*
G01X2900Y9600D02*
G01X7100Y9600D01*
G01X7100Y8400D01*
G01X2900Y8400D01*
G01X2900Y9600D01*
G01X4000Y9600D02*
G01X4000Y8400D01*
G01X12900Y9600D02*
G01X17100Y9600D01*
G01X17100Y8400D01*
G01X12900Y8400D01*
G01X12900Y9600D01*
G01X14000Y9600D02*
G01X14000Y8400D01*
G01X17900Y9600D02*
G01X22100Y9600D01*
G01X22100Y8400D01*
G01X17900Y8400D01*
G01X17900Y9600D01*
G01X19000Y9600D02*
G01X19000Y8400D01*
G01X2900Y6100D02*
G01X7100Y6100D01*
G01X7100Y4900D01*
G01X2900Y4900D01*
G01X2900Y6100D01*
G01X4000Y6100D02*
G01X4000Y4900D01*
G01X12900Y6100D02*
G01X17100Y6100D01*
G01X17100Y4900D01*
G01X12900Y4900D01*
G01X12900Y6100D01*
G01X14000Y6100D02*
G01X14000Y4900D01*
G54D33*
G01X32600Y10500D02*
G01X32600Y4500D01*
G01X30600Y4500D01*
G01X30600Y10500D01*
G01X32600Y10500D01*
G54D10*
G01X17900Y6100D02*
G01X22100Y6100D01*
G01X22100Y4900D01*
G01X17900Y4900D01*
G01X17900Y6100D01*
G01X19000Y6100D02*
G01X19000Y4900D01*
G01X3800Y3674D02*
G01X3800Y4284D01*
G01X3000Y4284D01*
G01X3000Y3674D01*
G01X3810Y3364D02*
G01X3810Y2784D01*
G01X3650Y2624D01*
G01X3150Y2624D01*
G01X3000Y2774D01*
G01X3000Y3374D01*
G01X3597Y3585D02*
G01X3203Y3585D01*
G01X3203Y3585D01*
G01X3400Y3388D01*
G01X3400Y3388D01*
G01X3597Y3585D01*
G01X3715Y2719D02*
G01X3085Y2719D01*
G01X4800Y3674D02*
G01X4800Y4284D01*
G01X4000Y4284D01*
G01X4000Y3674D01*
G01X4810Y3364D02*
G01X4810Y2784D01*
G01X4650Y2624D01*
G01X4150Y2624D01*
G01X4000Y2774D01*
G01X4000Y3374D01*
G01X4597Y3585D02*
G01X4203Y3585D01*
G01X4203Y3585D01*
G01X4400Y3388D01*
G01X4400Y3388D01*
G01X4597Y3585D01*
G01X4715Y2719D02*
G01X4085Y2719D01*
G01X5800Y3674D02*
G01X5800Y4284D01*
G01X5000Y4284D01*
G01X5000Y3674D01*
G01X5810Y3364D02*
G01X5810Y2784D01*
G01X5650Y2624D01*
G01X5150Y2624D01*
G01X5000Y2774D01*
G01X5000Y3374D01*
G01X5597Y3585D02*
G01X5203Y3585D01*
G01X5203Y3585D01*
G01X5400Y3388D01*
G01X5400Y3388D01*
G01X5597Y3585D01*
G01X5715Y2719D02*
G01X5085Y2719D01*
G01X6800Y3674D02*
G01X6800Y4284D01*
G01X6000Y4284D01*
G01X6000Y3674D01*
G01X6810Y3364D02*
G01X6810Y2784D01*
G01X6650Y2624D01*
G01X6150Y2624D01*
G01X6000Y2774D01*
G01X6000Y3374D01*
G01X6597Y3585D02*
G01X6203Y3585D01*
G01X6203Y3585D01*
G01X6400Y3388D01*
G01X6400Y3388D01*
G01X6597Y3585D01*
G01X6715Y2719D02*
G01X6085Y2719D01*
G01X10400Y2674D02*
G01X10400Y3284D01*
G01X9600Y3284D01*
G01X9600Y2674D01*
G01X10410Y2364D02*
G01X10410Y1784D01*
G01X10250Y1624D01*
G01X9750Y1624D01*
G01X9600Y1774D01*
G01X9600Y2374D01*
G01X10197Y2585D02*
G01X9803Y2585D01*
G01X9803Y2585D01*
G01X10000Y2388D01*
G01X10000Y2388D01*
G01X10197Y2585D01*
G01X10315Y1719D02*
G01X9685Y1719D01*
G01X11401Y2661D02*
G01X11401Y3271D01*
G01X10601Y3271D01*
G01X10601Y2661D01*
G01X11410Y2351D02*
G01X11410Y1771D01*
G01X11251Y1611D01*
G01X10751Y1611D01*
G01X10601Y1761D01*
G01X10601Y2361D01*
G01X11197Y2571D02*
G01X10803Y2571D01*
G01X10803Y2571D01*
G01X11001Y2375D01*
G01X11001Y2375D01*
G01X11197Y2571D01*
G01X11315Y1705D02*
G01X10685Y1705D01*
G01X12400Y2674D02*
G01X12400Y3284D01*
G01X11600Y3284D01*
G01X11600Y2674D01*
G01X12410Y2364D02*
G01X12410Y1784D01*
G01X12250Y1624D01*
G01X11750Y1624D01*
G01X11600Y1774D01*
G01X11600Y2374D01*
G01X12197Y2585D02*
G01X11803Y2585D01*
G01X11803Y2585D01*
G01X12000Y2388D01*
G01X12000Y2388D01*
G01X12197Y2585D01*
G01X12315Y1719D02*
G01X11685Y1719D01*
G01X8100Y5674D02*
G01X8100Y6284D01*
G01X7300Y6284D01*
G01X7300Y5674D01*
G01X8110Y5364D02*
G01X8110Y4784D01*
G01X7950Y4624D01*
G01X7450Y4624D01*
G01X7300Y4774D01*
G01X7300Y5374D01*
G01X7897Y5585D02*
G01X7503Y5585D01*
G01X7503Y5585D01*
G01X7700Y5388D01*
G01X7700Y5388D01*
G01X7897Y5585D01*
G01X8015Y4719D02*
G01X7385Y4719D01*
G01X20925Y8200D02*
G01X20315Y8200D01*
G01X20315Y7400D01*
G01X20925Y7400D01*
G01X21235Y8210D02*
G01X21815Y8210D01*
G01X21975Y8050D01*
G01X21975Y7550D01*
G01X21825Y7400D01*
G01X21225Y7400D01*
G01X21014Y7997D02*
G01X21014Y7603D01*
G01X21014Y7603D01*
G01X21211Y7800D01*
G01X21211Y7800D01*
G01X21014Y7997D01*
G01X21880Y8115D02*
G01X21880Y7485D01*
G01X15925Y8200D02*
G01X15315Y8200D01*
G01X15315Y7400D01*
G01X15925Y7400D01*
G01X16235Y8210D02*
G01X16815Y8210D01*
G01X16975Y8050D01*
G01X16975Y7550D01*
G01X16825Y7400D01*
G01X16225Y7400D01*
G01X16014Y7997D02*
G01X16014Y7603D01*
G01X16014Y7603D01*
G01X16211Y7800D01*
G01X16211Y7800D01*
G01X16014Y7997D01*
G01X16880Y8115D02*
G01X16880Y7485D01*
G01X5925Y8200D02*
G01X5315Y8200D01*
G01X5315Y7400D01*
G01X5925Y7400D01*
G01X6235Y8210D02*
G01X6815Y8210D01*
G01X6975Y8050D01*
G01X6975Y7550D01*
G01X6825Y7400D01*
G01X6225Y7400D01*
G01X6014Y7997D02*
G01X6014Y7603D01*
G01X6014Y7603D01*
G01X6211Y7800D01*
G01X6211Y7800D01*
G01X6014Y7997D01*
G01X6880Y8115D02*
G01X6880Y7485D01*
G01X10925Y8200D02*
G01X10315Y8200D01*
G01X10315Y7400D01*
G01X10925Y7400D01*
G01X11235Y8210D02*
G01X11815Y8210D01*
G01X11975Y8050D01*
G01X11975Y7550D01*
G01X11825Y7400D01*
G01X11225Y7400D01*
G01X11014Y7997D02*
G01X11014Y7603D01*
G01X11014Y7603D01*
G01X11211Y7800D01*
G01X11211Y7800D01*
G01X11014Y7997D01*
G01X11880Y8115D02*
G01X11880Y7485D01*
G01X20925Y11700D02*
G01X20315Y11700D01*
G01X20315Y10900D01*
G01X20925Y10900D01*
G01X21235Y11710D02*
G01X21815Y11710D01*
G01X21975Y11550D01*
G01X21975Y11050D01*
G01X21825Y10900D01*
G01X21225Y10900D01*
G01X21014Y11497D02*
G01X21014Y11103D01*
G01X21014Y11103D01*
G01X21211Y11300D01*
G01X21211Y11300D01*
G01X21014Y11497D01*
G01X21880Y11615D02*
G01X21880Y10985D01*
G01X15925Y11700D02*
G01X15315Y11700D01*
G01X15315Y10900D01*
G01X15925Y10900D01*
G01X16235Y11710D02*
G01X16815Y11710D01*
G01X16975Y11550D01*
G01X16975Y11050D01*
G01X16825Y10900D01*
G01X16225Y10900D01*
G01X16014Y11497D02*
G01X16014Y11103D01*
G01X16014Y11103D01*
G01X16211Y11300D01*
G01X16211Y11300D01*
G01X16014Y11497D01*
G01X16880Y11615D02*
G01X16880Y10985D01*
G01X10925Y11700D02*
G01X10315Y11700D01*
G01X10315Y10900D01*
G01X10925Y10900D01*
G01X11235Y11710D02*
G01X11815Y11710D01*
G01X11975Y11550D01*
G01X11975Y11050D01*
G01X11825Y10900D01*
G01X11225Y10900D01*
G01X11014Y11497D02*
G01X11014Y11103D01*
G01X11014Y11103D01*
G01X11211Y11300D01*
G01X11211Y11300D01*
G01X11014Y11497D01*
G01X11880Y11615D02*
G01X11880Y10985D01*
G01X5925Y11700D02*
G01X5315Y11700D01*
G01X5315Y10900D01*
G01X5925Y10900D01*
G01X6235Y11710D02*
G01X6815Y11710D01*
G01X6975Y11550D01*
G01X6975Y11050D01*
G01X6825Y10900D01*
G01X6225Y10900D01*
G01X6014Y11497D02*
G01X6014Y11103D01*
G01X6014Y11103D01*
G01X6211Y11300D01*
G01X6211Y11300D01*
G01X6014Y11497D01*
G01X6880Y11615D02*
G01X6880Y10985D01*
G54D34*
G01X24407Y1518D02*
G01X24407Y2038D01*
G01X23592Y2038D01*
G01X23592Y1518D01*
G01X24407Y1072D02*
G01X24407Y553D01*
G01X23592Y553D01*
G01X23592Y1072D01*
G01X23407Y1518D02*
G01X23407Y2038D01*
G01X22592Y2038D01*
G01X22592Y1518D01*
G01X23407Y1072D02*
G01X23407Y553D01*
G01X22592Y553D01*
G01X22592Y1072D01*
G01X23966Y3857D02*
G01X24333Y3490D01*
G01X24910Y4066D01*
G01X24542Y4433D01*
G01X23651Y4172D02*
G01X23283Y4540D01*
G01X23860Y5116D01*
G01X24227Y4748D01*
G01X29092Y9781D02*
G01X29092Y9261D01*
G01X29907Y9261D01*
G01X29907Y9781D01*
G01X29092Y10227D02*
G01X29092Y10746D01*
G01X29907Y10746D01*
G01X29907Y10227D01*
G01X28592Y1081D02*
G01X28592Y561D01*
G01X29407Y561D01*
G01X29407Y1081D01*
G01X28592Y1527D02*
G01X28592Y2046D01*
G01X29407Y2046D01*
G01X29407Y1527D01*
G01X29592Y1081D02*
G01X29592Y561D01*
G01X30407Y561D01*
G01X30407Y1081D01*
G01X29592Y1527D02*
G01X29592Y2046D01*
G01X30407Y2046D01*
G01X30407Y1527D01*
G01X23406Y3317D02*
G01X23406Y3838D01*
G01X22592Y3838D01*
G01X22592Y3317D01*
G01X23406Y2873D02*
G01X23406Y2353D01*
G01X22592Y2353D01*
G01X22592Y2873D01*
G54D10*
G01X29750Y11425D02*
G01X30600Y11425D01*
G01X30600Y13100D01*
G01X30125Y13575D01*
G01X29750Y13575D01*
G01X29250Y11425D02*
G01X28400Y11425D01*
G01X28400Y13125D01*
G01X28850Y13575D01*
G01X29250Y13575D01*
G54D35*
G01X28806Y3667D02*
G01X28917Y3778D01*
G01X28666Y4084D02*
G01X29251Y3499D01*
G01X28778Y4140D02*
G01X29307Y3611D01*
G01X29418Y3722D01*
G01X28889Y4251D01*
G01X28778Y4140D01*
G01X28945Y4363D02*
G01X29529Y3778D01*
G01X29251Y4112D02*
G01X29335Y4195D01*
G54D36*
G01X28718Y2882D02*
G01X30109Y4274D01*
G01X29469Y4915D02*
G01X28076Y3523D01*
G01X29469Y4914D02*
G01X30109Y4274D01*
G01X28078Y3522D02*
G01X28718Y2882D01*
G54D33*
G01X32500Y3500D02*
G01X32500Y2500D01*
G01X30500Y2500D01*
G01X30500Y3500D01*
G01X31250Y3500D01*
G54D37*
G01X32500Y3500D02*
G01X31250Y3500D01*
G54D33*
G01X2900Y2500D02*
G01X8900Y2500D01*
G01X8900Y500D01*
G01X2900Y500D01*
G01X2900Y2500D01*
G54D38*
G01X25300Y171D02*
G01X25300Y1630D01*
G01X27700Y180D02*
G01X27700Y1619D01*
G01X27700Y1628D02*
G01X25299Y1628D01*
G54D39*
G01X25299Y171D02*
G01X27700Y171D01*
G54D33*
G01X300Y5500D02*
G01X2300Y5500D01*
G01X2300Y8500D01*
G01X300Y8500D01*
G01X300Y5500D01*
G01X300Y7417D01*
G01X18500Y1500D02*
G01X18500Y500D01*
G01X16500Y500D01*
G01X16500Y1500D01*
G01X17250Y1500D01*
G54D37*
G01X18500Y1500D02*
G01X17250Y1500D01*
G54D33*
G01X10250Y1500D02*
G01X9500Y1500D01*
G01X9500Y500D01*
G01X15500Y500D01*
G01X15500Y1500D01*
G54D37*
G01X15500Y1500D02*
G01X10250Y1500D01*
G54D39*
G01X25900Y6900D02*
G01X25900Y6471D01*
G01X25900Y6900D02*
G01X26064Y6471D01*
G01X26227Y6900D02*
G01X26064Y6471D01*
G01X26227Y6900D02*
G01X26227Y6471D01*
G01X26669Y6798D02*
G01X26649Y6838D01*
G01X26608Y6880D01*
G01X26567Y6900D01*
G01X26485Y6900D01*
G01X26444Y6880D01*
G01X26403Y6838D01*
G01X26383Y6798D01*
G01X26362Y6736D01*
G01X26362Y6634D01*
G01X26383Y6573D01*
G01X26403Y6532D01*
G01X26444Y6490D01*
G01X26485Y6471D01*
G01X26567Y6471D01*
G01X26608Y6490D01*
G01X26649Y6532D01*
G01X26669Y6573D01*
G01X26804Y6900D02*
G01X26804Y6594D01*
G01X26825Y6532D01*
G01X26865Y6490D01*
G01X26927Y6471D01*
G01X26968Y6471D01*
G01X27029Y6490D01*
G01X27070Y6532D01*
G01X27090Y6594D01*
G01X27090Y6900D01*
G01X27700Y10900D02*
G01X27700Y10471D01*
G01X27700Y10900D02*
G01X27965Y10900D01*
G01X27700Y10696D02*
G01X27864Y10696D01*
G01X28101Y10819D02*
G01X28142Y10838D01*
G01X28202Y10900D01*
G01X28202Y10471D01*
G54D42*
G01X2900Y13700D02*
G01X3001Y13271D01*
G01X3105Y13700D02*
G01X3001Y13271D01*
G01X3105Y13700D02*
G01X3207Y13271D01*
G01X3309Y13700D02*
G01X3207Y13271D01*
G01X3444Y13619D02*
G01X3484Y13638D01*
G01X3546Y13700D01*
G01X3546Y13271D01*
G01X7900Y13700D02*
G01X8002Y13271D01*
G01X8105Y13700D02*
G01X8002Y13271D01*
G01X8105Y13700D02*
G01X8206Y13271D01*
G01X8309Y13700D02*
G01X8206Y13271D01*
G01X8464Y13598D02*
G01X8464Y13619D01*
G01X8485Y13659D01*
G01X8505Y13680D01*
G01X8546Y13700D01*
G01X8627Y13700D01*
G01X8668Y13680D01*
G01X8689Y13659D01*
G01X8710Y13619D01*
G01X8710Y13578D01*
G01X8689Y13536D01*
G01X8648Y13475D01*
G01X8443Y13271D01*
G01X8730Y13271D01*
G01X12900Y13700D02*
G01X13002Y13271D01*
G01X13105Y13700D02*
G01X13002Y13271D01*
G01X13105Y13700D02*
G01X13206Y13271D01*
G01X13309Y13700D02*
G01X13206Y13271D01*
G01X13485Y13700D02*
G01X13710Y13700D01*
G01X13586Y13536D01*
G01X13648Y13536D01*
G01X13689Y13515D01*
G01X13710Y13496D01*
G01X13730Y13434D01*
G01X13730Y13394D01*
G01X13710Y13332D01*
G01X13668Y13290D01*
G01X13607Y13271D01*
G01X13546Y13271D01*
G01X13485Y13290D01*
G01X13464Y13311D01*
G01X13443Y13353D01*
G01X17800Y13700D02*
G01X17902Y13271D01*
G01X18005Y13700D02*
G01X17902Y13271D01*
G01X18005Y13700D02*
G01X18106Y13271D01*
G01X18209Y13700D02*
G01X18106Y13271D01*
G01X18548Y13700D02*
G01X18343Y13413D01*
G01X18651Y13413D01*
G01X18548Y13700D02*
G01X18548Y13271D01*
G01X7900Y10200D02*
G01X7900Y9771D01*
G01X7900Y10200D02*
G01X8084Y10200D01*
G01X8144Y10180D01*
G01X8165Y10159D01*
G01X8185Y10119D01*
G01X8185Y10078D01*
G01X8165Y10036D01*
G01X8144Y10015D01*
G01X8084Y9996D01*
G01X7900Y9996D02*
G01X8084Y9996D01*
G01X8144Y9975D01*
G01X8165Y9955D01*
G01X8185Y9913D01*
G01X8185Y9853D01*
G01X8165Y9811D01*
G01X8144Y9790D01*
G01X8084Y9771D01*
G01X7900Y9771D01*
G01X8321Y10119D02*
G01X8361Y10138D01*
G01X8423Y10200D01*
G01X8423Y9771D01*
G01X2900Y10200D02*
G01X2900Y9771D01*
G01X2900Y10200D02*
G01X3084Y10200D01*
G01X3144Y10180D01*
G01X3165Y10159D01*
G01X3186Y10119D01*
G01X3186Y10078D01*
G01X3165Y10036D01*
G01X3144Y10015D01*
G01X3084Y9996D01*
G01X2900Y9996D02*
G01X3084Y9996D01*
G01X3144Y9975D01*
G01X3165Y9955D01*
G01X3186Y9913D01*
G01X3186Y9853D01*
G01X3165Y9811D01*
G01X3144Y9790D01*
G01X3084Y9771D01*
G01X2900Y9771D01*
G01X3342Y10098D02*
G01X3342Y10119D01*
G01X3361Y10159D01*
G01X3382Y10180D01*
G01X3423Y10200D01*
G01X3505Y10200D01*
G01X3546Y10180D01*
G01X3567Y10159D01*
G01X3586Y10119D01*
G01X3586Y10078D01*
G01X3567Y10036D01*
G01X3526Y9975D01*
G01X3321Y9771D01*
G01X3607Y9771D01*
G01X12900Y10200D02*
G01X12900Y9771D01*
G01X12900Y10200D02*
G01X13084Y10200D01*
G01X13144Y10180D01*
G01X13165Y10159D01*
G01X13185Y10119D01*
G01X13185Y10078D01*
G01X13165Y10036D01*
G01X13144Y10015D01*
G01X13084Y9996D01*
G01X12900Y9996D02*
G01X13084Y9996D01*
G01X13144Y9975D01*
G01X13165Y9955D01*
G01X13185Y9913D01*
G01X13185Y9853D01*
G01X13165Y9811D01*
G01X13144Y9790D01*
G01X13084Y9771D01*
G01X12900Y9771D01*
G01X13361Y10200D02*
G01X13586Y10200D01*
G01X13464Y10036D01*
G01X13526Y10036D01*
G01X13567Y10015D01*
G01X13586Y9996D01*
G01X13607Y9934D01*
G01X13607Y9894D01*
G01X13586Y9832D01*
G01X13546Y9790D01*
G01X13485Y9771D01*
G01X13423Y9771D01*
G01X13361Y9790D01*
G01X13342Y9811D01*
G01X13321Y9853D01*
G01X18185Y10138D02*
G01X18144Y10180D01*
G01X18084Y10200D01*
G01X18002Y10200D01*
G01X17940Y10180D01*
G01X17900Y10138D01*
G01X17900Y10098D01*
G01X17919Y10057D01*
G01X17940Y10036D01*
G01X17981Y10015D01*
G01X18105Y9975D01*
G01X18144Y9955D01*
G01X18165Y9934D01*
G01X18185Y9894D01*
G01X18185Y9832D01*
G01X18144Y9790D01*
G01X18084Y9771D01*
G01X18002Y9771D01*
G01X17940Y9790D01*
G01X17900Y9832D01*
G01X18464Y10200D02*
G01X18464Y9771D01*
G01X18321Y10200D02*
G01X18607Y10200D01*
G01X3186Y6638D02*
G01X3144Y6680D01*
G01X3084Y6700D01*
G01X3001Y6700D01*
G01X2940Y6680D01*
G01X2900Y6638D01*
G01X2900Y6598D01*
G01X2919Y6557D01*
G01X2940Y6536D01*
G01X2982Y6515D01*
G01X3105Y6475D01*
G01X3144Y6455D01*
G01X3165Y6434D01*
G01X3186Y6394D01*
G01X3186Y6332D01*
G01X3144Y6290D01*
G01X3084Y6271D01*
G01X3001Y6271D01*
G01X2940Y6290D01*
G01X2900Y6332D01*
G01X3321Y6700D02*
G01X3321Y6271D01*
G01X3321Y6700D02*
G01X3586Y6700D01*
G01X3321Y6496D02*
G01X3484Y6496D01*
G01X3321Y6271D02*
G01X3586Y6271D01*
G01X13022Y6744D02*
G01X12981Y6725D01*
G01X12940Y6684D01*
G01X12919Y6642D01*
G01X12900Y6582D01*
G01X12900Y6480D01*
G01X12919Y6417D01*
G01X12940Y6376D01*
G01X12981Y6336D01*
G01X13022Y6315D01*
G01X13105Y6315D01*
G01X13144Y6336D01*
G01X13185Y6376D01*
G01X13206Y6417D01*
G01X13227Y6480D01*
G01X13227Y6582D01*
G01X13206Y6642D01*
G01X13185Y6684D01*
G01X13144Y6725D01*
G01X13105Y6744D01*
G01X13022Y6744D01*
G01X13084Y6398D02*
G01X13206Y6275D01*
G01X13361Y6744D02*
G01X13361Y6438D01*
G01X13382Y6376D01*
G01X13423Y6336D01*
G01X13485Y6315D01*
G01X13526Y6315D01*
G01X13586Y6336D01*
G01X13627Y6376D01*
G01X13648Y6438D01*
G01X13648Y6744D01*
G01X13947Y6744D02*
G01X13784Y6315D01*
G01X13947Y6744D02*
G01X14110Y6315D01*
G01X13844Y6459D02*
G01X14050Y6459D01*
G01X14246Y6744D02*
G01X14246Y6315D01*
G01X14246Y6744D02*
G01X14389Y6744D01*
G01X14450Y6725D01*
G01X14490Y6684D01*
G01X14511Y6642D01*
G01X14531Y6582D01*
G01X14531Y6480D01*
G01X14511Y6417D01*
G01X14490Y6376D01*
G01X14450Y6336D01*
G01X14389Y6315D01*
G01X14246Y6315D01*
G01X14667Y6173D02*
G01X15035Y6173D01*
G01X15169Y6663D02*
G01X15210Y6684D01*
G01X15272Y6744D01*
G01X15272Y6315D01*
G01X31000Y11600D02*
G01X31000Y11171D01*
G01X31000Y11600D02*
G01X31184Y11600D01*
G01X31245Y11580D01*
G01X31266Y11559D01*
G01X31286Y11519D01*
G01X31286Y11457D01*
G01X31266Y11415D01*
G01X31245Y11396D01*
G01X31184Y11375D01*
G01X31000Y11375D01*
G01X31421Y11600D02*
G01X31524Y11171D01*
G01X31626Y11600D02*
G01X31524Y11171D01*
G01X31626Y11600D02*
G01X31728Y11171D01*
G01X31830Y11600D02*
G01X31728Y11171D01*
G01X31965Y11600D02*
G01X31965Y11171D01*
G01X31965Y11600D02*
G01X32150Y11600D01*
G01X32211Y11580D01*
G01X32231Y11559D01*
G01X32252Y11519D01*
G01X32252Y11478D01*
G01X32231Y11436D01*
G01X32211Y11415D01*
G01X32150Y11396D01*
G01X31965Y11396D01*
G01X32109Y11396D02*
G01X32252Y11171D01*
G01X18022Y6800D02*
G01X17981Y6780D01*
G01X17940Y6738D01*
G01X17919Y6698D01*
G01X17900Y6636D01*
G01X17900Y6534D01*
G01X17919Y6473D01*
G01X17940Y6432D01*
G01X17981Y6390D01*
G01X18022Y6371D01*
G01X18105Y6371D01*
G01X18144Y6390D01*
G01X18185Y6432D01*
G01X18206Y6473D01*
G01X18227Y6534D01*
G01X18227Y6636D01*
G01X18206Y6698D01*
G01X18185Y6738D01*
G01X18144Y6780D01*
G01X18105Y6800D01*
G01X18022Y6800D01*
G01X18084Y6453D02*
G01X18206Y6330D01*
G01X18361Y6800D02*
G01X18361Y6494D01*
G01X18382Y6432D01*
G01X18423Y6390D01*
G01X18485Y6371D01*
G01X18526Y6371D01*
G01X18586Y6390D01*
G01X18627Y6432D01*
G01X18648Y6494D01*
G01X18648Y6800D01*
G01X18947Y6800D02*
G01X18784Y6371D01*
G01X18947Y6800D02*
G01X19110Y6371D01*
G01X18844Y6513D02*
G01X19050Y6513D01*
G01X19246Y6800D02*
G01X19246Y6371D01*
G01X19246Y6800D02*
G01X19389Y6800D01*
G01X19450Y6780D01*
G01X19490Y6738D01*
G01X19511Y6698D01*
G01X19531Y6636D01*
G01X19531Y6534D01*
G01X19511Y6473D01*
G01X19490Y6432D01*
G01X19450Y6390D01*
G01X19389Y6371D01*
G01X19246Y6371D01*
G01X19667Y6228D02*
G01X20035Y6228D01*
G01X20190Y6698D02*
G01X20190Y6719D01*
G01X20210Y6759D01*
G01X20231Y6780D01*
G01X20272Y6800D01*
G01X20355Y6800D01*
G01X20394Y6780D01*
G01X20415Y6759D01*
G01X20435Y6719D01*
G01X20435Y6678D01*
G01X20415Y6636D01*
G01X20375Y6575D01*
G01X20169Y6371D01*
G01X20456Y6371D01*
G54D39*
G01X24599Y1391D02*
G01X25028Y1391D01*
G01X24599Y1391D02*
G01X24599Y1575D01*
G01X24619Y1636D01*
G01X24639Y1657D01*
G01X24680Y1677D01*
G01X24721Y1677D01*
G01X24762Y1657D01*
G01X24783Y1636D01*
G01X24803Y1575D01*
G01X24803Y1391D01*
G01X24803Y1534D02*
G01X25028Y1677D01*
G01X24599Y1853D02*
G01X24599Y2078D01*
G01X24762Y1956D01*
G01X24762Y2017D01*
G01X24783Y2058D01*
G01X24803Y2078D01*
G01X24864Y2099D01*
G01X24905Y2099D01*
G01X24967Y2078D01*
G01X25008Y2037D01*
G01X25028Y1976D01*
G01X25028Y1915D01*
G01X25008Y1853D01*
G01X24987Y1833D01*
G01X24946Y1812D01*
G01X21999Y1476D02*
G01X22428Y1476D01*
G01X21999Y1476D02*
G01X21999Y1619D01*
G01X22019Y1680D01*
G01X22060Y1721D01*
G01X22101Y1742D01*
G01X22162Y1761D01*
G01X22264Y1761D01*
G01X22326Y1742D01*
G01X22367Y1721D01*
G01X22408Y1680D01*
G01X22428Y1619D01*
G01X22428Y1476D01*
G01X22080Y1896D02*
G01X22060Y1938D01*
G01X21999Y2000D01*
G01X22428Y2000D01*
G01X24907Y3498D02*
G01X24886Y3539D01*
G01X24845Y3580D01*
G01X24805Y3600D01*
G01X24723Y3600D01*
G01X24682Y3580D01*
G01X24641Y3539D01*
G01X24620Y3498D01*
G01X24600Y3437D01*
G01X24600Y3335D01*
G01X24620Y3273D01*
G01X24641Y3232D01*
G01X24682Y3191D01*
G01X24723Y3171D01*
G01X24805Y3171D01*
G01X24845Y3191D01*
G01X24886Y3232D01*
G01X24907Y3273D01*
G01X25083Y3600D02*
G01X25308Y3600D01*
G01X25185Y3437D01*
G01X25246Y3437D01*
G01X25287Y3416D01*
G01X25308Y3396D01*
G01X25328Y3335D01*
G01X25328Y3294D01*
G01X25308Y3232D01*
G01X25267Y3191D01*
G01X25205Y3171D01*
G01X25144Y3171D01*
G01X25083Y3191D01*
G01X25062Y3212D01*
G01X25042Y3253D01*
G01X29300Y8371D02*
G01X29729Y8371D01*
G01X29300Y8371D02*
G01X29300Y8555D01*
G01X29320Y8617D01*
G01X29340Y8638D01*
G01X29381Y8657D01*
G01X29422Y8657D01*
G01X29463Y8638D01*
G01X29484Y8617D01*
G01X29504Y8555D01*
G01X29504Y8371D01*
G01X29504Y8515D02*
G01X29729Y8657D01*
G01X29300Y8998D02*
G01X29586Y8792D01*
G01X29586Y9100D01*
G01X29300Y8998D02*
G01X29729Y8998D01*
G01X28112Y1607D02*
G01X28071Y1586D01*
G01X28030Y1544D01*
G01X28010Y1505D01*
G01X28010Y1423D01*
G01X28030Y1382D01*
G01X28071Y1340D01*
G01X28112Y1319D01*
G01X28173Y1300D01*
G01X28275Y1300D01*
G01X28337Y1319D01*
G01X28378Y1340D01*
G01X28419Y1382D01*
G01X28439Y1423D01*
G01X28439Y1505D01*
G01X28419Y1544D01*
G01X28378Y1586D01*
G01X28337Y1607D01*
G01X28010Y1946D02*
G01X28296Y1742D01*
G01X28296Y2048D01*
G01X28010Y1946D02*
G01X28439Y1946D01*
G01X30702Y1578D02*
G01X30660Y1557D01*
G01X30619Y1517D01*
G01X30600Y1476D01*
G01X30600Y1394D01*
G01X30619Y1353D01*
G01X30660Y1313D01*
G01X30702Y1292D01*
G01X30763Y1271D01*
G01X30864Y1271D01*
G01X30927Y1292D01*
G01X30968Y1313D01*
G01X31009Y1353D01*
G01X31028Y1394D01*
G01X31028Y1476D01*
G01X31009Y1517D01*
G01X30968Y1557D01*
G01X30927Y1578D01*
G01X30600Y1959D02*
G01X30600Y1755D01*
G01X30784Y1734D01*
G01X30763Y1755D01*
G01X30743Y1815D01*
G01X30743Y1876D01*
G01X30763Y1938D01*
G01X30803Y1980D01*
G01X30864Y2000D01*
G01X30906Y2000D01*
G01X30968Y1980D01*
G01X31009Y1938D01*
G01X31028Y1876D01*
G01X31028Y1815D01*
G01X31009Y1755D01*
G01X30988Y1734D01*
G01X30947Y1713D01*
G01X22102Y3398D02*
G01X22061Y3377D01*
G01X22020Y3336D01*
G01X22000Y3296D01*
G01X22000Y3214D01*
G01X22020Y3173D01*
G01X22061Y3132D01*
G01X22102Y3111D01*
G01X22163Y3091D01*
G01X22265Y3091D01*
G01X22327Y3111D01*
G01X22368Y3132D01*
G01X22409Y3173D01*
G01X22429Y3214D01*
G01X22429Y3296D01*
G01X22409Y3336D01*
G01X22368Y3377D01*
G01X22327Y3398D01*
G01X22061Y3778D02*
G01X22020Y3758D01*
G01X22000Y3696D01*
G01X22000Y3656D01*
G01X22020Y3594D01*
G01X22081Y3553D01*
G01X22184Y3533D01*
G01X22286Y3533D01*
G01X22368Y3553D01*
G01X22409Y3594D01*
G01X22429Y3656D01*
G01X22429Y3676D01*
G01X22409Y3737D01*
G01X22368Y3778D01*
G01X22306Y3799D01*
G01X22286Y3799D01*
G01X22225Y3778D01*
G01X22184Y3737D01*
G01X22163Y3676D01*
G01X22163Y3656D01*
G01X22184Y3594D01*
G01X22225Y3553D01*
G01X22286Y3533D01*
G01X30802Y13378D02*
G01X30761Y13357D01*
G01X30720Y13317D01*
G01X30700Y13276D01*
G01X30700Y13194D01*
G01X30720Y13153D01*
G01X30761Y13113D01*
G01X30802Y13092D01*
G01X30863Y13071D01*
G01X30965Y13071D01*
G01X31027Y13092D01*
G01X31068Y13113D01*
G01X31109Y13153D01*
G01X31129Y13194D01*
G01X31129Y13276D01*
G01X31109Y13317D01*
G01X31068Y13357D01*
G01X31027Y13378D01*
G01X30700Y13800D02*
G01X31129Y13596D01*
G01X30700Y13513D02*
G01X30700Y13800D01*
G54D42*
G01X30300Y4200D02*
G01X30300Y3771D01*
G01X30300Y3771D02*
G01X30544Y3771D01*
G01X30680Y4200D02*
G01X30680Y3771D01*
G01X30680Y4200D02*
G01X30946Y4200D01*
G01X30680Y3996D02*
G01X30843Y3996D01*
G01X30680Y3771D02*
G01X30946Y3771D01*
G01X31081Y4200D02*
G01X31081Y3771D01*
G01X31081Y4200D02*
G01X31225Y4200D01*
G01X31285Y4180D01*
G01X31327Y4138D01*
G01X31347Y4098D01*
G01X31368Y4036D01*
G01X31368Y3934D01*
G01X31347Y3873D01*
G01X31327Y3832D01*
G01X31285Y3790D01*
G01X31225Y3771D01*
G01X31081Y3771D01*
G01X31502Y3628D02*
G01X31871Y3628D01*
G01X32006Y4200D02*
G01X32006Y3771D01*
G01X32006Y4200D02*
G01X32272Y4200D01*
G01X32006Y3996D02*
G01X32169Y3996D01*
G01X32006Y3771D02*
G01X32272Y3771D01*
G01X32406Y4200D02*
G01X32406Y3771D01*
G01X32406Y4200D02*
G01X32693Y3771D01*
G01X32693Y4200D02*
G01X32693Y3771D01*
G01X7300Y3600D02*
G01X7300Y3171D01*
G01X7586Y3600D02*
G01X7300Y3313D01*
G01X7401Y3415D02*
G01X7586Y3171D01*
G01X7721Y3600D02*
G01X7885Y3396D01*
G01X7885Y3171D01*
G01X8048Y3600D02*
G01X7885Y3396D01*
G01X8184Y3600D02*
G01X8184Y3171D01*
G01X8184Y3600D02*
G01X8368Y3600D01*
G01X8428Y3580D01*
G01X8450Y3559D01*
G01X8469Y3519D01*
G01X8469Y3457D01*
G01X8450Y3415D01*
G01X8428Y3396D01*
G01X8368Y3375D01*
G01X8184Y3375D01*
G01X8605Y3600D02*
G01X8605Y3171D01*
G01X8605Y3600D02*
G01X8747Y3600D01*
G01X8810Y3580D01*
G01X8850Y3538D01*
G01X8871Y3498D01*
G01X8890Y3436D01*
G01X8890Y3334D01*
G01X8871Y3273D01*
G01X8850Y3232D01*
G01X8810Y3190D01*
G01X8747Y3171D01*
G01X8605Y3171D01*
G01X1000Y9100D02*
G01X1000Y8671D01*
G01X1442Y8998D02*
G01X1421Y9038D01*
G01X1380Y9080D01*
G01X1340Y9100D01*
G01X1257Y9100D01*
G01X1217Y9080D01*
G01X1176Y9038D01*
G01X1155Y8998D01*
G01X1134Y8936D01*
G01X1134Y8834D01*
G01X1155Y8773D01*
G01X1176Y8732D01*
G01X1217Y8690D01*
G01X1257Y8671D01*
G01X1340Y8671D01*
G01X1380Y8690D01*
G01X1421Y8732D01*
G01X1442Y8773D01*
G01X1863Y9038D02*
G01X1821Y9080D01*
G01X1761Y9100D01*
G01X1678Y9100D01*
G01X1617Y9080D01*
G01X1576Y9038D01*
G01X1576Y8998D01*
G01X1596Y8957D01*
G01X1617Y8936D01*
G01X1659Y8915D01*
G01X1780Y8875D01*
G01X1821Y8855D01*
G01X1842Y8834D01*
G01X1863Y8794D01*
G01X1863Y8732D01*
G01X1821Y8690D01*
G01X1761Y8671D01*
G01X1678Y8671D01*
G01X1617Y8690D01*
G01X1576Y8732D01*
G01X1998Y9100D02*
G01X1998Y8671D01*
G01X1998Y9100D02*
G01X2182Y9100D01*
G01X2244Y9080D01*
G01X2263Y9059D01*
G01X2284Y9019D01*
G01X2284Y8957D01*
G01X2263Y8915D01*
G01X2244Y8896D01*
G01X2182Y8875D01*
G01X1998Y8875D01*
G01X16600Y2100D02*
G01X16600Y1671D01*
G01X16600Y2100D02*
G01X16784Y2100D01*
G01X16844Y2080D01*
G01X16865Y2059D01*
G01X16885Y2019D01*
G01X16885Y1978D01*
G01X16865Y1936D01*
G01X16844Y1915D01*
G01X16784Y1896D01*
G01X16600Y1896D02*
G01X16784Y1896D01*
G01X16844Y1875D01*
G01X16865Y1855D01*
G01X16885Y1813D01*
G01X16885Y1753D01*
G01X16865Y1711D01*
G01X16844Y1690D01*
G01X16784Y1671D01*
G01X16600Y1671D01*
G01X17143Y2100D02*
G01X17082Y2080D01*
G01X17042Y2019D01*
G01X17021Y1915D01*
G01X17021Y1855D01*
G01X17042Y1753D01*
G01X17082Y1690D01*
G01X17143Y1671D01*
G01X17185Y1671D01*
G01X17246Y1690D01*
G01X17286Y1753D01*
G01X17307Y1855D01*
G01X17307Y1915D01*
G01X17286Y2019D01*
G01X17246Y2080D01*
G01X17185Y2100D01*
G01X17143Y2100D01*
G01X17757Y2100D02*
G01X17757Y1671D01*
G01X17757Y2100D02*
G01X17901Y2100D01*
G01X17961Y2080D01*
G01X18002Y2038D01*
G01X18023Y1998D01*
G01X18043Y1936D01*
G01X18043Y1834D01*
G01X18023Y1773D01*
G01X18002Y1732D01*
G01X17961Y1690D01*
G01X17901Y1671D01*
G01X17757Y1671D01*
G01X18425Y2100D02*
G01X18219Y2100D01*
G01X18200Y1915D01*
G01X18219Y1936D01*
G01X18281Y1957D01*
G01X18343Y1957D01*
G01X18403Y1936D01*
G01X18444Y1896D01*
G01X18464Y1834D01*
G01X18464Y1794D01*
G01X18444Y1732D01*
G01X18403Y1690D01*
G01X18343Y1671D01*
G01X18281Y1671D01*
G01X18219Y1690D01*
G01X18200Y1711D01*
G01X18178Y1753D01*
G01X13500Y2100D02*
G01X13500Y1671D01*
G01X13500Y2100D02*
G01X13765Y2100D01*
G01X13500Y1896D02*
G01X13664Y1896D01*
G01X13500Y1671D02*
G01X13765Y1671D01*
G01X13901Y2100D02*
G01X14186Y1671D01*
G01X14186Y2100D02*
G01X13901Y1671D01*
G01X14464Y2100D02*
G01X14464Y1671D01*
G01X14322Y2100D02*
G01X14609Y2100D01*
G01X14743Y2100D02*
G01X14743Y1671D01*
G01X14743Y2100D02*
G01X14927Y2100D01*
G01X14989Y2080D01*
G01X15010Y2059D01*
G01X15030Y2019D01*
G01X15030Y1978D01*
G01X15010Y1936D01*
G01X14989Y1915D01*
G01X14927Y1896D01*
G01X14743Y1896D01*
G01X14886Y1896D02*
G01X15030Y1671D01*
G01X15328Y2100D02*
G01X15164Y1671D01*
G01X15328Y2100D02*
G01X15492Y1671D01*
G01X15226Y1813D02*
G01X15431Y1813D01*
G54D33*
G01X31100Y10836D02*
G01X31427Y10836D01*
G01X31990Y11000D02*
G01X31990Y10672D01*
G01X31827Y10836D02*
G01X32155Y10836D01*

%LPD*%
G36*
G01X20822Y3328D02*
G01X20718Y3328D01*
G01X20694Y3357D01*
G01X20718Y3386D01*
G01X20822Y3386D01*
G01X20847Y3357D01*
G01X20822Y3328D01*
G37*

%LPC*%

%LPD*%
G36*
G01X20992Y3328D02*
G01X20889Y3328D01*
G01X20863Y3357D01*
G01X20889Y3386D01*
G01X20992Y3386D01*
G01X21017Y3357D01*
G01X20992Y3328D01*
G37*

%LPC*%

%LPD*%
G36*
G01X20375Y3328D02*
G01X20271Y3328D01*
G01X20247Y3357D01*
G01X20271Y3386D01*
G01X20375Y3386D01*
G01X20398Y3357D01*
G01X20375Y3328D01*
G37*

%LPC*%

%LPD*%
G36*
G01X20543Y3328D02*
G01X20440Y3328D01*
G01X20414Y3357D01*
G01X20440Y3386D01*
G01X20543Y3386D01*
G01X20568Y3357D01*
G01X20543Y3328D01*
G37*

%LPC*%

%LPD*%
G36*
G01X19927Y3328D02*
G01X19822Y3328D01*
G01X19798Y3357D01*
G01X19822Y3386D01*
G01X19927Y3386D01*
G01X19951Y3357D01*
G01X19927Y3328D01*
G37*

%LPC*%

%LPD*%
G36*
G01X20096Y3328D02*
G01X19993Y3328D01*
G01X19967Y3357D01*
G01X19993Y3386D01*
G01X20096Y3386D01*
G01X20121Y3357D01*
G01X20096Y3328D01*
G37*

%LPC*%

%LPD*%
G36*
G01X19478Y3328D02*
G01X19375Y3328D01*
G01X19351Y3357D01*
G01X19375Y3386D01*
G01X19478Y3386D01*
G01X19502Y3357D01*
G01X19478Y3328D01*
G37*

%LPC*%

%LPD*%
G36*
G01X19647Y3328D02*
G01X19544Y3328D01*
G01X19518Y3357D01*
G01X19544Y3386D01*
G01X19647Y3386D01*
G01X19672Y3357D01*
G01X19647Y3328D01*
G37*

%LPC*%

%LPD*%
G36*
G01X16790Y3328D02*
G01X16686Y3328D01*
G01X16663Y3357D01*
G01X16686Y3386D01*
G01X16790Y3386D01*
G01X16814Y3357D01*
G01X16790Y3328D01*
G37*

%LPC*%

%LPD*%
G36*
G01X16960Y3328D02*
G01X16856Y3328D01*
G01X16831Y3357D01*
G01X16856Y3386D01*
G01X16960Y3386D01*
G01X16985Y3357D01*
G01X16960Y3328D01*
G37*

%LPC*%

%LPD*%
G36*
G01X16343Y3328D02*
G01X16239Y3328D01*
G01X16214Y3357D01*
G01X16239Y3386D01*
G01X16343Y3386D01*
G01X16367Y3357D01*
G01X16343Y3328D01*
G37*

%LPC*%

%LPD*%
G36*
G01X16511Y3328D02*
G01X16409Y3328D01*
G01X16382Y3357D01*
G01X16409Y3386D01*
G01X16511Y3386D01*
G01X16536Y3357D01*
G01X16511Y3328D01*
G37*

%LPC*%

%LPD*%
G36*
G01X14102Y3328D02*
G01X13998Y3328D01*
G01X13975Y3357D01*
G01X13998Y3386D01*
G01X14102Y3386D01*
G01X14127Y3357D01*
G01X14102Y3328D01*
G37*

%LPC*%

%LPD*%
G36*
G01X20709Y3398D02*
G01X20686Y3367D01*
G01X20664Y3398D01*
G01X20664Y3623D01*
G01X20685Y3653D01*
G01X20709Y3623D01*
G01X20709Y3398D01*
G37*

%LPC*%

%LPD*%
G36*
G01X21047Y3398D02*
G01X21025Y3367D01*
G01X21001Y3398D01*
G01X21001Y3623D01*
G01X21023Y3653D01*
G01X21047Y3623D01*
G01X21047Y3398D01*
G37*

%LPC*%

%LPD*%
G36*
G01X20431Y3398D02*
G01X20407Y3367D01*
G01X20385Y3398D01*
G01X20385Y3623D01*
G01X20406Y3653D01*
G01X20431Y3623D01*
G01X20431Y3398D01*
G37*

%LPC*%

%LPD*%
G36*
G01X19813Y3398D02*
G01X19790Y3367D01*
G01X19768Y3398D01*
G01X19768Y3623D01*
G01X19789Y3653D01*
G01X19813Y3623D01*
G01X19813Y3398D01*
G37*

%LPC*%

%LPD*%
G36*
G01X20151Y3398D02*
G01X20128Y3367D01*
G01X20105Y3398D01*
G01X20105Y3623D01*
G01X20127Y3653D01*
G01X20151Y3623D01*
G01X20151Y3398D01*
G37*

%LPC*%

%LPD*%
G36*
G01X19364Y3398D02*
G01X19343Y3367D01*
G01X19319Y3398D01*
G01X19319Y3623D01*
G01X19342Y3653D01*
G01X19364Y3623D01*
G01X19364Y3398D01*
G37*

%LPC*%

%LPD*%
G36*
G01X18468Y3398D02*
G01X18447Y3367D01*
G01X18423Y3398D01*
G01X18423Y3623D01*
G01X18446Y3653D01*
G01X18468Y3623D01*
G01X18468Y3398D01*
G37*

%LPC*%

%LPD*%
G36*
G01X18806Y3398D02*
G01X18785Y3367D01*
G01X18760Y3398D01*
G01X18760Y3623D01*
G01X18784Y3653D01*
G01X18806Y3623D01*
G01X18806Y3398D01*
G37*

%LPC*%

%LPD*%
G36*
G01X18021Y3398D02*
G01X17998Y3367D01*
G01X17976Y3398D01*
G01X17976Y3623D01*
G01X17997Y3653D01*
G01X18021Y3623D01*
G01X18021Y3398D01*
G37*

%LPC*%

%LPD*%
G36*
G01X18359Y3398D02*
G01X18336Y3367D01*
G01X18313Y3398D01*
G01X18313Y3623D01*
G01X18335Y3653D01*
G01X18359Y3623D01*
G01X18359Y3398D01*
G37*

%LPC*%

%LPD*%
G36*
G01X17572Y3398D02*
G01X17551Y3367D01*
G01X17527Y3398D01*
G01X17527Y3623D01*
G01X17550Y3653D01*
G01X17572Y3623D01*
G01X17572Y3398D01*
G37*

%LPC*%

%LPD*%
G36*
G01X17910Y3398D02*
G01X17889Y3367D01*
G01X17864Y3398D01*
G01X17864Y3623D01*
G01X17888Y3653D01*
G01X17910Y3623D01*
G01X17910Y3398D01*
G37*

%LPC*%

%LPD*%
G36*
G01X17125Y3398D02*
G01X17102Y3367D01*
G01X17080Y3398D01*
G01X17080Y3623D01*
G01X17102Y3653D01*
G01X17125Y3623D01*
G01X17125Y3398D01*
G37*

%LPC*%

%LPD*%
G36*
G01X17463Y3398D02*
G01X17440Y3367D01*
G01X17417Y3398D01*
G01X17417Y3623D01*
G01X17439Y3653D01*
G01X17463Y3623D01*
G01X17463Y3398D01*
G37*

%LPC*%

%LPD*%
G36*
G01X16677Y3398D02*
G01X16655Y3367D01*
G01X16631Y3398D01*
G01X16631Y3623D01*
G01X16653Y3653D01*
G01X16677Y3623D01*
G01X16677Y3398D01*
G37*

%LPC*%

%LPD*%
G36*
G01X16398Y3398D02*
G01X16376Y3367D01*
G01X16352Y3398D01*
G01X16352Y3623D01*
G01X16375Y3653D01*
G01X16398Y3623D01*
G01X16398Y3398D01*
G37*

%LPC*%

%LPD*%
G36*
G01X15781Y3398D02*
G01X15759Y3367D01*
G01X15735Y3398D01*
G01X15735Y3623D01*
G01X15757Y3653D01*
G01X15781Y3623D01*
G01X15781Y3398D01*
G37*

%LPC*%

%LPD*%
G36*
G01X16118Y3398D02*
G01X16097Y3367D01*
G01X16072Y3398D01*
G01X16072Y3623D01*
G01X16096Y3653D01*
G01X16118Y3623D01*
G01X16118Y3398D01*
G37*

%LPC*%

%LPD*%
G36*
G01X15502Y3398D02*
G01X15480Y3367D01*
G01X15456Y3398D01*
G01X15456Y3623D01*
G01X15478Y3653D01*
G01X15502Y3623D01*
G01X15502Y3398D01*
G37*

%LPC*%

%LPD*%
G36*
G01X14606Y3398D02*
G01X14584Y3367D01*
G01X14560Y3398D01*
G01X14560Y3623D01*
G01X14582Y3653D01*
G01X14606Y3623D01*
G01X14606Y3398D01*
G37*

%LPC*%

%LPD*%
G36*
G01X13989Y3398D02*
G01X13967Y3367D01*
G01X13943Y3398D01*
G01X13943Y3623D01*
G01X13965Y3653D01*
G01X13989Y3623D01*
G01X13989Y3398D01*
G37*

%LPC*%

%LPD*%
G36*
G01X13540Y3398D02*
G01X13518Y3367D01*
G01X13496Y3398D01*
G01X13496Y3623D01*
G01X13518Y3653D01*
G01X13540Y3623D01*
G01X13540Y3398D01*
G37*

%LPC*%

%LPD*%
G36*
G01X13878Y3398D02*
G01X13856Y3367D01*
G01X13832Y3398D01*
G01X13832Y3623D01*
G01X13856Y3653D01*
G01X13878Y3623D01*
G01X13878Y3398D01*
G37*

%LPC*%

%LPD*%
G36*
G01X13093Y3398D02*
G01X13071Y3367D01*
G01X13047Y3398D01*
G01X13047Y3623D01*
G01X13069Y3653D01*
G01X13093Y3623D01*
G01X13093Y3398D01*
G37*

%LPC*%

%LPD*%
G36*
G01X13431Y3398D02*
G01X13409Y3367D01*
G01X13385Y3398D01*
G01X13385Y3623D01*
G01X13407Y3653D01*
G01X13431Y3623D01*
G01X13431Y3398D01*
G37*

%LPC*%

%LPD*%
G36*
G01X12644Y3398D02*
G01X12622Y3367D01*
G01X12600Y3398D01*
G01X12600Y3623D01*
G01X12622Y3653D01*
G01X12644Y3623D01*
G01X12644Y3398D01*
G37*

%LPC*%

%LPD*%
G36*
G01X19834Y3396D02*
G01X19822Y3396D01*
G01X19822Y3471D01*
G01X19907Y3625D01*
G01X19927Y3625D01*
G01X19927Y3565D01*
G01X19834Y3396D01*
G37*

%LPC*%

%LPD*%
G36*
G01X18752Y3396D02*
G01X18740Y3396D01*
G01X18646Y3565D01*
G01X18646Y3625D01*
G01X18667Y3625D01*
G01X18752Y3471D01*
G01X18752Y3396D01*
G37*

%LPC*%

%LPD*%
G36*
G01X18305Y3396D02*
G01X18293Y3396D01*
G01X18197Y3565D01*
G01X18197Y3625D01*
G01X18218Y3625D01*
G01X18305Y3471D01*
G01X18305Y3396D01*
G37*

%LPC*%

%LPD*%
G36*
G01X14178Y3396D02*
G01X14165Y3396D01*
G01X14165Y3471D01*
G01X14252Y3625D01*
G01X14272Y3625D01*
G01X14272Y3565D01*
G01X14178Y3396D01*
G37*

%LPC*%

%LPD*%
G36*
G01X13825Y3396D02*
G01X13813Y3396D01*
G01X13718Y3565D01*
G01X13718Y3625D01*
G01X13739Y3625D01*
G01X13825Y3471D01*
G01X13825Y3396D01*
G37*

%LPC*%

%LPD*%
G36*
G01X12928Y3396D02*
G01X12917Y3396D01*
G01X12822Y3565D01*
G01X12822Y3625D01*
G01X12843Y3625D01*
G01X12928Y3471D01*
G01X12928Y3396D01*
G37*

%LPC*%

%LPD*%
G36*
G01X20822Y3636D02*
G01X20718Y3636D01*
G01X20694Y3663D01*
G01X20718Y3692D01*
G01X20822Y3692D01*
G01X20847Y3665D01*
G01X20822Y3636D01*
G37*

%LPC*%

%LPD*%
G36*
G01X20992Y3636D02*
G01X20889Y3636D01*
G01X20863Y3663D01*
G01X20889Y3692D01*
G01X20992Y3692D01*
G01X21017Y3665D01*
G01X20992Y3636D01*
G37*

%LPC*%

%LPD*%
G36*
G01X19478Y3636D02*
G01X19375Y3636D01*
G01X19351Y3663D01*
G01X19375Y3692D01*
G01X19478Y3692D01*
G01X19502Y3665D01*
G01X19478Y3636D01*
G37*

%LPC*%

%LPD*%
G36*
G01X19647Y3636D02*
G01X19544Y3636D01*
G01X19518Y3663D01*
G01X19544Y3692D01*
G01X19647Y3692D01*
G01X19672Y3665D01*
G01X19647Y3636D01*
G37*

%LPC*%

%LPD*%
G36*
G01X17686Y3636D02*
G01X17582Y3636D01*
G01X17559Y3663D01*
G01X17582Y3692D01*
G01X17686Y3692D01*
G01X17710Y3665D01*
G01X17686Y3636D01*
G37*

%LPC*%

%LPD*%
G36*
G01X17856Y3636D02*
G01X17752Y3636D01*
G01X17727Y3663D01*
G01X17752Y3692D01*
G01X17856Y3692D01*
G01X17881Y3665D01*
G01X17856Y3636D01*
G37*

%LPC*%

%LPD*%
G36*
G01X16790Y3636D02*
G01X16686Y3636D01*
G01X16663Y3663D01*
G01X16686Y3692D01*
G01X16790Y3692D01*
G01X16814Y3665D01*
G01X16790Y3636D01*
G37*

%LPC*%

%LPD*%
G36*
G01X16960Y3636D02*
G01X16856Y3636D01*
G01X16831Y3663D01*
G01X16856Y3692D01*
G01X16960Y3692D01*
G01X16985Y3665D01*
G01X16960Y3636D01*
G37*

%LPC*%

%LPD*%
G36*
G01X15894Y3636D02*
G01X15790Y3636D01*
G01X15767Y3663D01*
G01X15790Y3692D01*
G01X15894Y3692D01*
G01X15918Y3665D01*
G01X15894Y3636D01*
G37*

%LPC*%

%LPD*%
G36*
G01X16064Y3636D02*
G01X15960Y3636D01*
G01X15935Y3663D01*
G01X15960Y3692D01*
G01X16064Y3692D01*
G01X16089Y3665D01*
G01X16064Y3636D01*
G37*

%LPC*%

%LPD*%
G36*
G01X13206Y3636D02*
G01X13102Y3636D01*
G01X13078Y3663D01*
G01X13102Y3692D01*
G01X13206Y3692D01*
G01X13231Y3665D01*
G01X13206Y3636D01*
G37*

%LPC*%

%LPD*%
G36*
G01X13376Y3636D02*
G01X13272Y3636D01*
G01X13247Y3663D01*
G01X13272Y3692D01*
G01X13376Y3692D01*
G01X13401Y3665D01*
G01X13376Y3636D01*
G37*

%LPC*%

%LPD*%
G36*
G01X12759Y3636D02*
G01X12655Y3636D01*
G01X12631Y3663D01*
G01X12655Y3692D01*
G01X12759Y3692D01*
G01X12782Y3665D01*
G01X12759Y3636D01*
G37*

%LPC*%

%LPD*%
G36*
G01X12927Y3636D02*
G01X12825Y3636D01*
G01X12798Y3663D01*
G01X12825Y3692D01*
G01X12927Y3692D01*
G01X12952Y3665D01*
G01X12927Y3636D01*
G37*

%LPC*%

%LPD*%
G36*
G01X20709Y3705D02*
G01X20686Y3673D01*
G01X20664Y3705D01*
G01X20664Y3930D01*
G01X20685Y3959D01*
G01X20709Y3930D01*
G01X20709Y3705D01*
G37*

%LPC*%

%LPD*%
G36*
G01X21047Y3705D02*
G01X21025Y3673D01*
G01X21001Y3705D01*
G01X21001Y3930D01*
G01X21023Y3961D01*
G01X21047Y3930D01*
G01X21047Y3705D01*
G37*

%LPC*%

%LPD*%
G36*
G01X20431Y3705D02*
G01X20407Y3673D01*
G01X20385Y3705D01*
G01X20385Y3930D01*
G01X20406Y3959D01*
G01X20431Y3930D01*
G01X20431Y3705D01*
G37*

%LPC*%

%LPD*%
G36*
G01X19813Y3705D02*
G01X19790Y3673D01*
G01X19768Y3705D01*
G01X19768Y3930D01*
G01X19789Y3959D01*
G01X19813Y3930D01*
G01X19813Y3705D01*
G37*

%LPC*%

%LPD*%
G36*
G01X20151Y3705D02*
G01X20128Y3673D01*
G01X20105Y3705D01*
G01X20105Y3930D01*
G01X20127Y3961D01*
G01X20151Y3930D01*
G01X20151Y3705D01*
G37*

%LPC*%

%LPD*%
G36*
G01X19702Y3705D02*
G01X19681Y3673D01*
G01X19656Y3705D01*
G01X19656Y3930D01*
G01X19680Y3961D01*
G01X19702Y3930D01*
G01X19702Y3705D01*
G37*

%LPC*%

%LPD*%
G36*
G01X18468Y3705D02*
G01X18447Y3673D01*
G01X18423Y3705D01*
G01X18423Y3930D01*
G01X18446Y3959D01*
G01X18468Y3930D01*
G01X18468Y3705D01*
G37*

%LPC*%

%LPD*%
G36*
G01X18806Y3705D02*
G01X18785Y3673D01*
G01X18760Y3705D01*
G01X18760Y3930D01*
G01X18784Y3961D01*
G01X18806Y3930D01*
G01X18806Y3705D01*
G37*

%LPC*%

%LPD*%
G36*
G01X18021Y3705D02*
G01X17998Y3673D01*
G01X17976Y3705D01*
G01X17976Y3930D01*
G01X17997Y3959D01*
G01X18021Y3930D01*
G01X18021Y3705D01*
G37*

%LPC*%

%LPD*%
G36*
G01X18359Y3705D02*
G01X18336Y3673D01*
G01X18313Y3705D01*
G01X18313Y3930D01*
G01X18335Y3961D01*
G01X18359Y3930D01*
G01X18359Y3705D01*
G37*

%LPC*%

%LPD*%
G36*
G01X17125Y3705D02*
G01X17102Y3673D01*
G01X17080Y3705D01*
G01X17080Y3930D01*
G01X17102Y3959D01*
G01X17125Y3930D01*
G01X17125Y3705D01*
G37*

%LPC*%

%LPD*%
G36*
G01X17463Y3705D02*
G01X17440Y3673D01*
G01X17417Y3705D01*
G01X17417Y3930D01*
G01X17439Y3961D01*
G01X17463Y3930D01*
G01X17463Y3705D01*
G37*

%LPC*%

%LPD*%
G36*
G01X16677Y3705D02*
G01X16655Y3673D01*
G01X16631Y3705D01*
G01X16631Y3930D01*
G01X16653Y3959D01*
G01X16677Y3930D01*
G01X16677Y3705D01*
G37*

%LPC*%

%LPD*%
G36*
G01X16398Y3705D02*
G01X16376Y3673D01*
G01X16352Y3705D01*
G01X16352Y3930D01*
G01X16375Y3959D01*
G01X16398Y3930D01*
G01X16398Y3705D01*
G37*

%LPC*%

%LPD*%
G36*
G01X15781Y3705D02*
G01X15759Y3673D01*
G01X15735Y3705D01*
G01X15735Y3930D01*
G01X15757Y3959D01*
G01X15781Y3930D01*
G01X15781Y3705D01*
G37*

%LPC*%

%LPD*%
G36*
G01X16118Y3705D02*
G01X16097Y3673D01*
G01X16072Y3705D01*
G01X16072Y3930D01*
G01X16096Y3961D01*
G01X16118Y3930D01*
G01X16118Y3705D01*
G37*

%LPC*%

%LPD*%
G36*
G01X15502Y3705D02*
G01X15480Y3673D01*
G01X15456Y3705D01*
G01X15456Y3930D01*
G01X15478Y3959D01*
G01X15502Y3930D01*
G01X15502Y3705D01*
G37*

%LPC*%

%LPD*%
G36*
G01X13989Y3705D02*
G01X13967Y3673D01*
G01X13943Y3705D01*
G01X13943Y3930D01*
G01X13965Y3959D01*
G01X13989Y3930D01*
G01X13989Y3705D01*
G37*

%LPC*%

%LPD*%
G36*
G01X13540Y3705D02*
G01X13518Y3673D01*
G01X13496Y3705D01*
G01X13496Y3930D01*
G01X13518Y3959D01*
G01X13540Y3930D01*
G01X13540Y3705D01*
G37*

%LPC*%

%LPD*%
G36*
G01X13878Y3705D02*
G01X13856Y3673D01*
G01X13832Y3705D01*
G01X13832Y3930D01*
G01X13856Y3961D01*
G01X13878Y3930D01*
G01X13878Y3705D01*
G37*

%LPC*%

%LPD*%
G36*
G01X12644Y3705D02*
G01X12622Y3673D01*
G01X12600Y3705D01*
G01X12600Y3930D01*
G01X12622Y3959D01*
G01X12644Y3930D01*
G01X12644Y3705D01*
G37*

%LPC*%

%LPD*%
G36*
G01X12982Y3705D02*
G01X12960Y3673D01*
G01X12936Y3705D01*
G01X12936Y3930D01*
G01X12960Y3961D01*
G01X12982Y3930D01*
G01X12982Y3705D01*
G37*

%LPC*%

%LPD*%
G36*
G01X20010Y3703D02*
G01X19989Y3703D01*
G01X19989Y3763D01*
G01X20085Y3932D01*
G01X20097Y3932D01*
G01X20097Y3857D01*
G01X20010Y3703D01*
G37*

%LPC*%

%LPD*%
G36*
G01X18584Y3703D02*
G01X18564Y3703D01*
G01X18477Y3857D01*
G01X18477Y3932D01*
G01X18489Y3932D01*
G01X18584Y3763D01*
G01X18584Y3703D01*
G37*

%LPC*%

%LPD*%
G36*
G01X18135Y3703D02*
G01X18115Y3703D01*
G01X18030Y3857D01*
G01X18030Y3932D01*
G01X18042Y3932D01*
G01X18135Y3763D01*
G01X18135Y3703D01*
G37*

%LPC*%

%LPD*%
G36*
G01X17602Y3703D02*
G01X17581Y3703D01*
G01X17581Y3763D01*
G01X17676Y3932D01*
G01X17688Y3932D01*
G01X17688Y3857D01*
G01X17602Y3703D01*
G37*

%LPC*%

%LPD*%
G36*
G01X17856Y3703D02*
G01X17836Y3703D01*
G01X17750Y3857D01*
G01X17750Y3932D01*
G01X17763Y3932D01*
G01X17856Y3763D01*
G01X17856Y3703D01*
G37*

%LPC*%

%LPD*%
G36*
G01X17239Y3703D02*
G01X17219Y3703D01*
G01X17134Y3857D01*
G01X17134Y3932D01*
G01X17146Y3932D01*
G01X17239Y3763D01*
G01X17239Y3703D01*
G37*

%LPC*%

%LPD*%
G36*
G01X17322Y3703D02*
G01X17302Y3703D01*
G01X17302Y3763D01*
G01X17397Y3932D01*
G01X17409Y3932D01*
G01X17409Y3857D01*
G01X17322Y3703D01*
G37*

%LPC*%

%LPD*%
G36*
G01X14552Y3703D02*
G01X14531Y3703D01*
G01X14446Y3857D01*
G01X14446Y3932D01*
G01X14457Y3932D01*
G01X14552Y3763D01*
G01X14552Y3703D01*
G37*

%LPC*%

%LPD*%
G36*
G01X14635Y3703D02*
G01X14614Y3703D01*
G01X14614Y3763D01*
G01X14709Y3932D01*
G01X14721Y3932D01*
G01X14721Y3857D01*
G01X14635Y3703D01*
G37*

%LPC*%

%LPD*%
G36*
G01X14272Y3703D02*
G01X14252Y3703D01*
G01X14165Y3857D01*
G01X14165Y3932D01*
G01X14178Y3932D01*
G01X14272Y3763D01*
G01X14272Y3703D01*
G37*

%LPC*%

%LPD*%
G36*
G01X13656Y3703D02*
G01X13635Y3703D01*
G01X13550Y3857D01*
G01X13550Y3932D01*
G01X13561Y3932D01*
G01X13656Y3763D01*
G01X13656Y3703D01*
G37*

%LPC*%

%LPD*%
G36*
G01X13122Y3703D02*
G01X13102Y3703D01*
G01X13102Y3763D01*
G01X13196Y3932D01*
G01X13207Y3932D01*
G01X13207Y3857D01*
G01X13122Y3703D01*
G37*

%LPC*%

%LPD*%
G36*
G01X13377Y3703D02*
G01X13356Y3703D01*
G01X13269Y3857D01*
G01X13269Y3932D01*
G01X13282Y3932D01*
G01X13377Y3763D01*
G01X13377Y3703D01*
G37*

%LPC*%

%LPD*%
G36*
G01X20822Y3942D02*
G01X20718Y3942D01*
G01X20694Y3969D01*
G01X20718Y4000D01*
G01X20822Y4000D01*
G01X20847Y3971D01*
G01X20822Y3942D01*
G37*

%LPC*%

%LPD*%
G36*
G01X20992Y3942D02*
G01X20889Y3942D01*
G01X20863Y3969D01*
G01X20889Y4000D01*
G01X20992Y4000D01*
G01X21017Y3971D01*
G01X20992Y3942D01*
G37*

%LPC*%

%LPD*%
G36*
G01X20375Y3942D02*
G01X20271Y3942D01*
G01X20247Y3969D01*
G01X20271Y4000D01*
G01X20375Y4000D01*
G01X20398Y3971D01*
G01X20375Y3942D01*
G37*

%LPC*%

%LPD*%
G36*
G01X19927Y3942D02*
G01X19822Y3942D01*
G01X19798Y3969D01*
G01X19822Y4000D01*
G01X19927Y4000D01*
G01X19951Y3971D01*
G01X19927Y3942D01*
G37*

%LPC*%

%LPD*%
G36*
G01X20096Y3942D02*
G01X19993Y3942D01*
G01X19967Y3969D01*
G01X19993Y4000D01*
G01X20096Y4000D01*
G01X20121Y3971D01*
G01X20096Y3942D01*
G37*

%LPC*%

%LPD*%
G36*
G01X19478Y3942D02*
G01X19375Y3942D01*
G01X19351Y3969D01*
G01X19375Y4000D01*
G01X19478Y4000D01*
G01X19502Y3971D01*
G01X19478Y3942D01*
G37*

%LPC*%

%LPD*%
G36*
G01X19647Y3942D02*
G01X19544Y3942D01*
G01X19518Y3969D01*
G01X19544Y4000D01*
G01X19647Y4000D01*
G01X19672Y3971D01*
G01X19647Y3942D01*
G37*

%LPC*%

%LPD*%
G36*
G01X16790Y3942D02*
G01X16686Y3942D01*
G01X16663Y3969D01*
G01X16686Y4000D01*
G01X16790Y4000D01*
G01X16814Y3971D01*
G01X16790Y3942D01*
G37*

%LPC*%

%LPD*%
G36*
G01X16960Y3942D02*
G01X16856Y3942D01*
G01X16831Y3969D01*
G01X16856Y4000D01*
G01X16960Y4000D01*
G01X16985Y3971D01*
G01X16960Y3942D01*
G37*

%LPC*%

%LPD*%
G36*
G01X16343Y3942D02*
G01X16239Y3942D01*
G01X16214Y3969D01*
G01X16239Y4000D01*
G01X16343Y4000D01*
G01X16367Y3971D01*
G01X16343Y3942D01*
G37*

%LPC*%

%LPD*%
G36*
G01X16511Y3942D02*
G01X16409Y3942D01*
G01X16382Y3969D01*
G01X16409Y4000D01*
G01X16511Y4000D01*
G01X16536Y3971D01*
G01X16511Y3942D01*
G37*

%LPC*%

%LPD*%
G36*
G01X15447Y3942D02*
G01X15343Y3942D01*
G01X15318Y3969D01*
G01X15343Y4000D01*
G01X15447Y4000D01*
G01X15471Y3971D01*
G01X15447Y3942D01*
G37*

%LPC*%

%LPD*%
G36*
G01X15615Y3942D02*
G01X15513Y3942D01*
G01X15486Y3969D01*
G01X15513Y4000D01*
G01X15615Y4000D01*
G01X15640Y3971D01*
G01X15615Y3942D01*
G37*

%LPC*%

%LPD*%
G36*
G01X14102Y3942D02*
G01X13998Y3942D01*
G01X13975Y3969D01*
G01X13998Y4000D01*
G01X14102Y4000D01*
G01X14127Y3971D01*
G01X14102Y3942D01*
G37*

%LPC*%

%LPD*%
G36*
G01X12759Y3942D02*
G01X12655Y3942D01*
G01X12631Y3969D01*
G01X12655Y4000D01*
G01X12759Y4000D01*
G01X12782Y3971D01*
G01X12759Y3942D01*
G37*

%LPC*%

%LPD*%
G36*
G01X12927Y3942D02*
G01X12825Y3942D01*
G01X12798Y3969D01*
G01X12825Y4000D01*
G01X12927Y4000D01*
G01X12952Y3971D01*
G01X12927Y3942D01*
G37*

%LPC*%

%LPD*%

%LPD*%
G36*
G01X19982Y2528D02*
G01X19878Y2528D01*
G01X19855Y2557D01*
G01X19878Y2586D01*
G01X19982Y2586D01*
G01X20006Y2559D01*
G01X19982Y2528D01*
G37*

%LPC*%

%LPD*%
G36*
G01X20152Y2528D02*
G01X20048Y2528D01*
G01X20022Y2557D01*
G01X20048Y2586D01*
G01X20152Y2586D01*
G01X20177Y2559D01*
G01X20152Y2528D01*
G37*

%LPC*%

%LPD*%
G36*
G01X19576Y2530D02*
G01X19568Y2528D01*
G01X19559Y2530D01*
G01X19551Y2532D01*
G01X19543Y2538D01*
G01X19538Y2544D01*
G01X19533Y2553D01*
G01X19529Y2561D01*
G01X19527Y2570D01*
G01X19527Y2580D01*
G01X19527Y2589D01*
G01X19529Y2598D01*
G01X19533Y2607D01*
G01X19538Y2615D01*
G01X19543Y2621D01*
G01X19551Y2626D01*
G01X19559Y2628D01*
G01X19568Y2630D01*
G01X19577Y2628D01*
G01X19584Y2626D01*
G01X19591Y2621D01*
G01X19597Y2615D01*
G01X19601Y2607D01*
G01X19605Y2598D01*
G01X19607Y2589D01*
G01X19607Y2580D01*
G01X19607Y2570D01*
G01X19605Y2561D01*
G01X19601Y2553D01*
G01X19597Y2544D01*
G01X19590Y2538D01*
G01X19584Y2532D01*
G01X19576Y2530D01*
G37*

%LPC*%

%LPD*%
G36*
G01X17294Y2528D02*
G01X17190Y2528D01*
G01X17167Y2557D01*
G01X17190Y2586D01*
G01X17294Y2586D01*
G01X17318Y2559D01*
G01X17294Y2528D01*
G37*

%LPC*%

%LPD*%
G36*
G01X17464Y2528D02*
G01X17360Y2528D01*
G01X17335Y2557D01*
G01X17360Y2586D01*
G01X17464Y2586D01*
G01X17489Y2559D01*
G01X17464Y2528D01*
G37*

%LPC*%

%LPD*%
G36*
G01X16847Y2528D02*
G01X16743Y2528D01*
G01X16718Y2557D01*
G01X16743Y2586D01*
G01X16847Y2586D01*
G01X16871Y2559D01*
G01X16847Y2528D01*
G37*

%LPC*%

%LPD*%
G36*
G01X17015Y2528D02*
G01X16913Y2528D01*
G01X16886Y2557D01*
G01X16913Y2586D01*
G01X17015Y2586D01*
G01X17040Y2559D01*
G01X17015Y2528D01*
G37*

%LPC*%

%LPD*%
G36*
G01X16398Y2528D02*
G01X16294Y2528D01*
G01X16271Y2557D01*
G01X16294Y2586D01*
G01X16398Y2586D01*
G01X16422Y2559D01*
G01X16398Y2528D01*
G37*

%LPC*%

%LPD*%
G36*
G01X16568Y2528D02*
G01X16464Y2528D01*
G01X16439Y2557D01*
G01X16464Y2586D01*
G01X16568Y2586D01*
G01X16593Y2559D01*
G01X16568Y2528D01*
G37*

%LPC*%

%LPD*%
G36*
G01X14606Y2528D02*
G01X14502Y2528D01*
G01X14478Y2557D01*
G01X14502Y2586D01*
G01X14606Y2586D01*
G01X14631Y2559D01*
G01X14606Y2528D01*
G37*

%LPC*%

%LPD*%
G36*
G01X14776Y2528D02*
G01X14672Y2528D01*
G01X14647Y2557D01*
G01X14672Y2586D01*
G01X14776Y2586D01*
G01X14801Y2559D01*
G01X14776Y2528D01*
G37*

%LPC*%

%LPD*%
G36*
G01X14159Y2528D02*
G01X14055Y2528D01*
G01X14031Y2557D01*
G01X14055Y2586D01*
G01X14159Y2586D01*
G01X14182Y2559D01*
G01X14159Y2528D01*
G37*

%LPC*%

%LPD*%
G36*
G01X14327Y2528D02*
G01X14225Y2528D01*
G01X14198Y2557D01*
G01X14225Y2586D01*
G01X14327Y2586D01*
G01X14352Y2559D01*
G01X14327Y2528D01*
G37*

%LPC*%

%LPD*%
G36*
G01X19868Y2598D02*
G01X19847Y2567D01*
G01X19823Y2598D01*
G01X19823Y2823D01*
G01X19846Y2853D01*
G01X19868Y2823D01*
G01X19868Y2598D01*
G37*

%LPC*%

%LPD*%
G36*
G01X20206Y2598D02*
G01X20185Y2567D01*
G01X20160Y2598D01*
G01X20160Y2823D01*
G01X20184Y2853D01*
G01X20206Y2823D01*
G01X20206Y2598D01*
G37*

%LPC*%

%LPD*%
G36*
G01X19310Y2598D02*
G01X19289Y2567D01*
G01X19264Y2598D01*
G01X19264Y2823D01*
G01X19288Y2853D01*
G01X19310Y2823D01*
G01X19310Y2598D01*
G37*

%LPC*%

%LPD*%
G36*
G01X17628Y2598D02*
G01X17606Y2567D01*
G01X17584Y2598D01*
G01X17584Y2823D01*
G01X17606Y2853D01*
G01X17628Y2823D01*
G01X17628Y2598D01*
G37*

%LPC*%

%LPD*%
G36*
G01X17967Y2598D02*
G01X17944Y2567D01*
G01X17921Y2598D01*
G01X17921Y2823D01*
G01X17943Y2853D01*
G01X17967Y2823D01*
G01X17967Y2598D01*
G37*

%LPC*%

%LPD*%
G36*
G01X17181Y2598D02*
G01X17159Y2567D01*
G01X17135Y2598D01*
G01X17135Y2823D01*
G01X17157Y2853D01*
G01X17181Y2823D01*
G01X17181Y2598D01*
G37*

%LPC*%

%LPD*%
G36*
G01X17518Y2598D02*
G01X17497Y2567D01*
G01X17472Y2598D01*
G01X17472Y2823D01*
G01X17496Y2853D01*
G01X17518Y2823D01*
G01X17518Y2598D01*
G37*

%LPC*%

%LPD*%
G36*
G01X16732Y2598D02*
G01X16710Y2567D01*
G01X16688Y2598D01*
G01X16688Y2823D01*
G01X16710Y2853D01*
G01X16732Y2823D01*
G01X16732Y2598D01*
G37*

%LPC*%

%LPD*%
G36*
G01X16455Y2598D02*
G01X16431Y2567D01*
G01X16409Y2598D01*
G01X16409Y2823D01*
G01X16431Y2853D01*
G01X16455Y2823D01*
G01X16455Y2598D01*
G37*

%LPC*%

%LPD*%
G36*
G01X15836Y2598D02*
G01X15814Y2567D01*
G01X15792Y2598D01*
G01X15792Y2823D01*
G01X15814Y2853D01*
G01X15836Y2823D01*
G01X15836Y2598D01*
G37*

%LPC*%

%LPD*%
G36*
G01X16175Y2598D02*
G01X16152Y2567D01*
G01X16128Y2598D01*
G01X16128Y2823D01*
G01X16152Y2853D01*
G01X16175Y2823D01*
G01X16175Y2598D01*
G37*

%LPC*%

%LPD*%
G36*
G01X15389Y2598D02*
G01X15367Y2567D01*
G01X15343Y2598D01*
G01X15343Y2823D01*
G01X15365Y2853D01*
G01X15389Y2823D01*
G01X15389Y2598D01*
G37*

%LPC*%

%LPD*%
G36*
G01X15727Y2598D02*
G01X15705Y2567D01*
G01X15681Y2598D01*
G01X15681Y2823D01*
G01X15703Y2853D01*
G01X15727Y2823D01*
G01X15727Y2598D01*
G37*

%LPC*%

%LPD*%
G36*
G01X14940Y2598D02*
G01X14918Y2567D01*
G01X14896Y2598D01*
G01X14896Y2823D01*
G01X14918Y2853D01*
G01X14940Y2823D01*
G01X14940Y2598D01*
G37*

%LPC*%

%LPD*%
G36*
G01X15278Y2598D02*
G01X15256Y2567D01*
G01X15232Y2598D01*
G01X15232Y2823D01*
G01X15256Y2853D01*
G01X15278Y2823D01*
G01X15278Y2598D01*
G37*

%LPC*%

%LPD*%
G36*
G01X14493Y2598D02*
G01X14471Y2567D01*
G01X14447Y2598D01*
G01X14447Y2823D01*
G01X14469Y2853D01*
G01X14493Y2823D01*
G01X14493Y2598D01*
G37*

%LPC*%

%LPD*%
G36*
G01X14044Y2598D02*
G01X14022Y2567D01*
G01X14000Y2598D01*
G01X14000Y2823D01*
G01X14022Y2853D01*
G01X14044Y2823D01*
G01X14044Y2598D01*
G37*

%LPC*%

%LPD*%
G36*
G01X14384Y2598D02*
G01X14360Y2567D01*
G01X14336Y2598D01*
G01X14336Y2823D01*
G01X14360Y2853D01*
G01X14384Y2823D01*
G01X14384Y2598D01*
G37*

%LPC*%

%LPD*%
G36*
G01X19889Y2596D02*
G01X19877Y2596D01*
G01X19877Y2671D01*
G01X19964Y2825D01*
G01X19984Y2825D01*
G01X19984Y2765D01*
G01X19889Y2596D01*
G37*

%LPC*%

%LPD*%
G36*
G01X18639Y2596D02*
G01X18627Y2596D01*
G01X18534Y2765D01*
G01X18534Y2825D01*
G01X18553Y2825D01*
G01X18639Y2671D01*
G01X18639Y2596D01*
G37*

%LPC*%

%LPD*%
G36*
G01X18714Y2596D02*
G01X18702Y2596D01*
G01X18702Y2671D01*
G01X18789Y2825D01*
G01X18809Y2825D01*
G01X18809Y2765D01*
G01X18714Y2596D01*
G37*

%LPC*%

%LPD*%
G36*
G01X17913Y2596D02*
G01X17901Y2596D01*
G01X17806Y2765D01*
G01X17806Y2825D01*
G01X17827Y2825D01*
G01X17913Y2671D01*
G01X17913Y2596D01*
G37*

%LPC*%

%LPD*%
G36*
G01X16121Y2596D02*
G01X16109Y2596D01*
G01X16014Y2765D01*
G01X16014Y2825D01*
G01X16035Y2825D01*
G01X16121Y2671D01*
G01X16121Y2596D01*
G37*

%LPC*%

%LPD*%
G36*
G01X19086Y2836D02*
G01X18982Y2836D01*
G01X18959Y2863D01*
G01X18982Y2892D01*
G01X19086Y2892D01*
G01X19110Y2865D01*
G01X19086Y2836D01*
G37*

%LPC*%

%LPD*%
G36*
G01X19256Y2836D02*
G01X19152Y2836D01*
G01X19127Y2863D01*
G01X19152Y2892D01*
G01X19256Y2892D01*
G01X19281Y2865D01*
G01X19256Y2836D01*
G37*

%LPC*%

%LPD*%
G36*
G01X15502Y2836D02*
G01X15398Y2836D01*
G01X15375Y2863D01*
G01X15398Y2892D01*
G01X15502Y2892D01*
G01X15527Y2865D01*
G01X15502Y2836D01*
G37*

%LPC*%

%LPD*%
G36*
G01X15672Y2836D02*
G01X15568Y2836D01*
G01X15543Y2863D01*
G01X15568Y2892D01*
G01X15672Y2892D01*
G01X15697Y2865D01*
G01X15672Y2836D01*
G37*

%LPC*%

%LPD*%
G36*
G01X14606Y2836D02*
G01X14502Y2836D01*
G01X14478Y2863D01*
G01X14502Y2892D01*
G01X14606Y2892D01*
G01X14631Y2865D01*
G01X14606Y2836D01*
G37*

%LPC*%

%LPD*%
G36*
G01X14776Y2836D02*
G01X14672Y2836D01*
G01X14647Y2863D01*
G01X14672Y2892D01*
G01X14776Y2892D01*
G01X14801Y2865D01*
G01X14776Y2836D01*
G37*

%LPC*%

%LPD*%
G36*
G01X14159Y2836D02*
G01X14055Y2836D01*
G01X14031Y2863D01*
G01X14055Y2892D01*
G01X14159Y2892D01*
G01X14182Y2865D01*
G01X14159Y2836D01*
G37*

%LPC*%

%LPD*%
G36*
G01X14327Y2836D02*
G01X14225Y2836D01*
G01X14198Y2863D01*
G01X14225Y2892D01*
G01X14327Y2892D01*
G01X14352Y2865D01*
G01X14327Y2836D01*
G37*

%LPC*%

%LPD*%
G36*
G01X19868Y2905D02*
G01X19847Y2873D01*
G01X19823Y2905D01*
G01X19823Y3130D01*
G01X19846Y3161D01*
G01X19868Y3130D01*
G01X19868Y2905D01*
G37*

%LPC*%

%LPD*%
G36*
G01X20206Y2905D02*
G01X20185Y2873D01*
G01X20160Y2905D01*
G01X20160Y3130D01*
G01X20184Y3161D01*
G01X20206Y3130D01*
G01X20206Y2905D01*
G37*

%LPC*%

%LPD*%
G36*
G01X18972Y2905D02*
G01X18951Y2873D01*
G01X18927Y2905D01*
G01X18927Y3130D01*
G01X18950Y3161D01*
G01X18972Y3130D01*
G01X18972Y2905D01*
G37*

%LPC*%

%LPD*%
G36*
G01X19310Y2905D02*
G01X19289Y2873D01*
G01X19264Y2905D01*
G01X19264Y3130D01*
G01X19288Y3161D01*
G01X19310Y3130D01*
G01X19310Y2905D01*
G37*

%LPC*%

%LPD*%
G36*
G01X18525Y2905D02*
G01X18502Y2873D01*
G01X18480Y2905D01*
G01X18480Y3130D01*
G01X18502Y3161D01*
G01X18525Y3130D01*
G01X18525Y2905D01*
G37*

%LPC*%

%LPD*%
G36*
G01X18863Y2905D02*
G01X18840Y2873D01*
G01X18817Y2905D01*
G01X18817Y3130D01*
G01X18839Y3161D01*
G01X18863Y3130D01*
G01X18863Y2905D01*
G37*

%LPC*%

%LPD*%
G36*
G01X17628Y2905D02*
G01X17606Y2873D01*
G01X17584Y2905D01*
G01X17584Y3130D01*
G01X17606Y3161D01*
G01X17628Y3130D01*
G01X17628Y2905D01*
G37*

%LPC*%

%LPD*%
G36*
G01X17967Y2905D02*
G01X17944Y2873D01*
G01X17921Y2905D01*
G01X17921Y3130D01*
G01X17943Y3161D01*
G01X17967Y3130D01*
G01X17967Y2905D01*
G37*

%LPC*%

%LPD*%
G36*
G01X17181Y2905D02*
G01X17159Y2873D01*
G01X17135Y2905D01*
G01X17135Y3130D01*
G01X17157Y3161D01*
G01X17181Y3130D01*
G01X17181Y2905D01*
G37*

%LPC*%

%LPD*%
G36*
G01X17518Y2905D02*
G01X17497Y2873D01*
G01X17472Y2905D01*
G01X17472Y3130D01*
G01X17496Y3161D01*
G01X17518Y3130D01*
G01X17518Y2905D01*
G37*

%LPC*%

%LPD*%
G36*
G01X16732Y2905D02*
G01X16710Y2873D01*
G01X16688Y2905D01*
G01X16688Y3130D01*
G01X16710Y3161D01*
G01X16732Y3130D01*
G01X16732Y2905D01*
G37*

%LPC*%

%LPD*%
G36*
G01X16455Y2905D02*
G01X16431Y2873D01*
G01X16409Y2905D01*
G01X16409Y3130D01*
G01X16431Y3161D01*
G01X16455Y3130D01*
G01X16455Y2905D01*
G37*

%LPC*%

%LPD*%
G36*
G01X15836Y2905D02*
G01X15814Y2873D01*
G01X15792Y2905D01*
G01X15792Y3130D01*
G01X15814Y3161D01*
G01X15836Y3130D01*
G01X15836Y2905D01*
G37*

%LPC*%

%LPD*%
G36*
G01X16175Y2905D02*
G01X16152Y2873D01*
G01X16128Y2905D01*
G01X16128Y3130D01*
G01X16152Y3161D01*
G01X16175Y3130D01*
G01X16175Y2905D01*
G37*

%LPC*%

%LPD*%
G36*
G01X14940Y2905D02*
G01X14918Y2873D01*
G01X14896Y2905D01*
G01X14896Y3130D01*
G01X14918Y3161D01*
G01X14940Y3130D01*
G01X14940Y2905D01*
G37*

%LPC*%

%LPD*%
G36*
G01X15278Y2905D02*
G01X15256Y2873D01*
G01X15232Y2905D01*
G01X15232Y3130D01*
G01X15256Y3161D01*
G01X15278Y3130D01*
G01X15278Y2905D01*
G37*

%LPC*%

%LPD*%
G36*
G01X14493Y2905D02*
G01X14471Y2873D01*
G01X14447Y2905D01*
G01X14447Y3130D01*
G01X14469Y3161D01*
G01X14493Y3130D01*
G01X14493Y2905D01*
G37*

%LPC*%

%LPD*%
G36*
G01X14044Y2905D02*
G01X14022Y2873D01*
G01X14000Y2905D01*
G01X14000Y3130D01*
G01X14022Y3161D01*
G01X14044Y3130D01*
G01X14044Y2905D01*
G37*

%LPC*%

%LPD*%
G36*
G01X14384Y2905D02*
G01X14360Y2873D01*
G01X14336Y2905D01*
G01X14336Y3130D01*
G01X14360Y3161D01*
G01X14384Y3130D01*
G01X14384Y2905D01*
G37*

%LPC*%

%LPD*%
G36*
G01X20067Y2903D02*
G01X20046Y2903D01*
G01X20046Y2963D01*
G01X20140Y3132D01*
G01X20152Y3132D01*
G01X20152Y3057D01*
G01X20067Y2903D01*
G37*

%LPC*%

%LPD*%
G36*
G01X17743Y2903D02*
G01X17723Y2903D01*
G01X17638Y3057D01*
G01X17638Y3132D01*
G01X17650Y3132D01*
G01X17743Y2963D01*
G01X17743Y2903D01*
G37*

%LPC*%

%LPD*%
G36*
G01X15952Y2903D02*
G01X15931Y2903D01*
G01X15846Y3057D01*
G01X15846Y3132D01*
G01X15857Y3132D01*
G01X15952Y2963D01*
G01X15952Y2903D01*
G37*

%LPC*%

%LPD*%
G36*
G01X15418Y2903D02*
G01X15397Y2903D01*
G01X15397Y2963D01*
G01X15492Y3132D01*
G01X15503Y3132D01*
G01X15503Y3057D01*
G01X15418Y2903D01*
G37*

%LPC*%

%LPD*%
G36*
G01X15672Y2903D02*
G01X15652Y2903D01*
G01X15565Y3057D01*
G01X15565Y3132D01*
G01X15578Y3132D01*
G01X15672Y2963D01*
G01X15672Y2903D01*
G37*

%LPC*%

%LPD*%
G36*
G01X15056Y2903D02*
G01X15035Y2903D01*
G01X14950Y3057D01*
G01X14950Y3132D01*
G01X14961Y3132D01*
G01X15056Y2963D01*
G01X15056Y2903D01*
G37*

%LPC*%

%LPD*%
G36*
G01X15139Y2903D02*
G01X15118Y2903D01*
G01X15118Y2963D01*
G01X15213Y3132D01*
G01X15225Y3132D01*
G01X15225Y3057D01*
G01X15139Y2903D01*
G37*

%LPC*%

%LPD*%
G36*
G01X19982Y3142D02*
G01X19878Y3142D01*
G01X19855Y3169D01*
G01X19878Y3200D01*
G01X19982Y3200D01*
G01X20006Y3171D01*
G01X19982Y3142D01*
G37*

%LPC*%

%LPD*%
G36*
G01X20152Y3142D02*
G01X20048Y3142D01*
G01X20022Y3169D01*
G01X20048Y3200D01*
G01X20152Y3200D01*
G01X20177Y3171D01*
G01X20152Y3142D01*
G37*

%LPC*%

%LPD*%
G36*
G01X17294Y3142D02*
G01X17190Y3142D01*
G01X17167Y3169D01*
G01X17190Y3200D01*
G01X17294Y3200D01*
G01X17318Y3171D01*
G01X17294Y3142D01*
G37*

%LPC*%

%LPD*%
G36*
G01X17464Y3142D02*
G01X17360Y3142D01*
G01X17335Y3169D01*
G01X17360Y3200D01*
G01X17464Y3200D01*
G01X17489Y3171D01*
G01X17464Y3142D01*
G37*

%LPC*%

%LPD*%
G36*
G01X16847Y3142D02*
G01X16743Y3142D01*
G01X16718Y3169D01*
G01X16743Y3200D01*
G01X16847Y3200D01*
G01X16871Y3171D01*
G01X16847Y3142D01*
G37*

%LPC*%

%LPD*%
G36*
G01X17015Y3142D02*
G01X16913Y3142D01*
G01X16886Y3169D01*
G01X16913Y3200D01*
G01X17015Y3200D01*
G01X17040Y3171D01*
G01X17015Y3142D01*
G37*

%LPC*%

%LPD*%
G36*
G01X16398Y3142D02*
G01X16294Y3142D01*
G01X16271Y3169D01*
G01X16294Y3200D01*
G01X16398Y3200D01*
G01X16422Y3171D01*
G01X16398Y3142D01*
G37*

%LPC*%

%LPD*%
G36*
G01X16568Y3142D02*
G01X16464Y3142D01*
G01X16439Y3169D01*
G01X16464Y3200D01*
G01X16568Y3200D01*
G01X16593Y3171D01*
G01X16568Y3142D01*
G37*

%LPC*%

%LPD*%
G36*
G01X14606Y3142D02*
G01X14502Y3142D01*
G01X14478Y3169D01*
G01X14502Y3200D01*
G01X14606Y3200D01*
G01X14631Y3171D01*
G01X14606Y3142D01*
G37*

%LPC*%

%LPD*%
G36*
G01X14776Y3142D02*
G01X14672Y3142D01*
G01X14647Y3169D01*
G01X14672Y3200D01*
G01X14776Y3200D01*
G01X14801Y3171D01*
G01X14776Y3142D01*
G37*

%LPC*%

%LPD*%
G36*
G01X14159Y3142D02*
G01X14055Y3142D01*
G01X14031Y3169D01*
G01X14055Y3200D01*
G01X14159Y3200D01*
G01X14182Y3171D01*
G01X14159Y3142D01*
G37*

%LPC*%

%LPD*%
G36*
G01X14327Y3142D02*
G01X14225Y3142D01*
G01X14198Y3169D01*
G01X14225Y3200D01*
G01X14327Y3200D01*
G01X14352Y3171D01*
G01X14327Y3142D01*
G37*

%LPC*%

%LPD*%
G54D42*
G01X25550Y2200D02*
G01X25550Y1771D01*
G01X25550Y2200D02*
G01X25734Y2200D01*
G01X25794Y2180D01*
G01X25815Y2159D01*
G01X25835Y2119D01*
G01X25835Y2078D01*
G01X25815Y2036D01*
G01X25794Y2015D01*
G01X25734Y1996D01*
G01X25550Y1996D01*
G01X25693Y1996D02*
G01X25835Y1771D01*
G01X25971Y2200D02*
G01X25971Y1771D01*
G01X25971Y2200D02*
G01X26236Y2200D01*
G01X25971Y1996D02*
G01X26135Y1996D01*
G01X25971Y1771D02*
G01X26236Y1771D01*
G01X26659Y2138D02*
G01X26618Y2180D01*
G01X26556Y2200D01*
G01X26475Y2200D01*
G01X26413Y2180D01*
G01X26372Y2138D01*
G01X26372Y2098D01*
G01X26393Y2057D01*
G01X26413Y2036D01*
G01X26453Y2015D01*
G01X26577Y1975D01*
G01X26618Y1955D01*
G01X26638Y1934D01*
G01X26659Y1894D01*
G01X26659Y1832D01*
G01X26618Y1790D01*
G01X26556Y1771D01*
G01X26475Y1771D01*
G01X26413Y1790D01*
G01X26372Y1832D01*
G01X26793Y2200D02*
G01X26793Y1771D01*
G01X26793Y2200D02*
G01X27060Y2200D01*
G01X26793Y1996D02*
G01X26956Y1996D01*
G01X26793Y1771D02*
G01X27060Y1771D01*
G01X27338Y2200D02*
G01X27338Y1771D01*
G01X27194Y2200D02*
G01X27481Y2200D01*
G54D33*
G01X18400Y4600D02*
G01X18727Y4600D01*
G01X19290Y4763D02*
G01X19290Y4436D01*
G01X19127Y4600D02*
G01X19455Y4600D01*
G01X13400Y4600D02*
G01X13727Y4600D01*
G01X14290Y4763D02*
G01X14290Y4436D01*
G01X14127Y4600D02*
G01X14455Y4600D01*
G01X7500Y2836D02*
G01X7827Y2836D01*
G01X8390Y3000D02*
G01X8390Y2672D01*
G01X8227Y2836D02*
G01X8555Y2836D01*
G01X3563Y4763D02*
G01X3563Y4436D01*
G01X3400Y4600D02*
G01X3726Y4600D01*
G01X4126Y4600D02*
G01X4455Y4600D01*
G01X3663Y8263D02*
G01X3663Y7936D01*
G01X3500Y8100D02*
G01X3826Y8100D01*
G01X4226Y8100D02*
G01X4555Y8100D01*
G01X8664Y8263D02*
G01X8664Y7936D01*
G01X8500Y8100D02*
G01X8827Y8100D01*
G01X9227Y8100D02*
G01X9555Y8100D01*
G01X13664Y8263D02*
G01X13664Y7936D01*
G01X13500Y8100D02*
G01X13827Y8100D01*
G01X14227Y8100D02*
G01X14555Y8100D01*
G01X18664Y8263D02*
G01X18664Y7936D01*
G01X18500Y8100D02*
G01X18827Y8100D01*
G01X19227Y8100D02*
G01X19555Y8100D01*
G01X18664Y11763D02*
G01X18664Y11436D01*
G01X18500Y11600D02*
G01X18827Y11600D01*
G01X19227Y11600D02*
G01X19555Y11600D01*
G01X13664Y11763D02*
G01X13664Y11436D01*
G01X13500Y11600D02*
G01X13827Y11600D01*
G01X14227Y11600D02*
G01X14555Y11600D01*
G01X8664Y11763D02*
G01X8664Y11436D01*
G01X8500Y11600D02*
G01X8827Y11600D01*
G01X9227Y11600D02*
G01X9555Y11600D01*
G01X3663Y11763D02*
G01X3663Y11436D01*
G01X3500Y11600D02*
G01X3826Y11600D01*
G01X4226Y11600D02*
G01X4555Y11600D01*
G01X5855Y13546D02*
G01X5817Y13582D01*
G01X5763Y13600D01*
G01X5690Y13600D01*
G01X5636Y13582D01*
G01X5600Y13546D01*
G01X5600Y13509D01*
G01X5617Y13473D01*
G01X5636Y13455D01*
G01X5673Y13437D01*
G01X5782Y13400D01*
G01X5817Y13382D01*
G01X5836Y13364D01*
G01X5855Y13327D01*
G01X5855Y13273D01*
G01X5817Y13237D01*
G01X5763Y13218D01*
G01X5690Y13218D01*
G01X5636Y13237D01*
G01X5600Y13273D01*
G01X6255Y13600D02*
G01X6255Y13218D01*
G01X6255Y13218D02*
G01X6473Y13218D01*
G01X10855Y13563D02*
G01X10818Y13600D01*
G01X10764Y13617D01*
G01X10690Y13617D01*
G01X10635Y13600D01*
G01X10600Y13563D01*
G01X10600Y13526D01*
G01X10618Y13490D01*
G01X10635Y13473D01*
G01X10672Y13455D01*
G01X10781Y13417D01*
G01X10818Y13400D01*
G01X10835Y13382D01*
G01X10855Y13344D01*
G01X10855Y13290D01*
G01X10818Y13255D01*
G01X10764Y13236D01*
G01X10690Y13236D01*
G01X10635Y13255D01*
G01X10600Y13290D01*
G01X11255Y13617D02*
G01X11255Y13236D01*
G01X11255Y13236D02*
G01X11472Y13236D01*
G01X15855Y13563D02*
G01X15818Y13600D01*
G01X15764Y13617D01*
G01X15690Y13617D01*
G01X15635Y13600D01*
G01X15600Y13563D01*
G01X15600Y13526D01*
G01X15618Y13490D01*
G01X15635Y13473D01*
G01X15672Y13455D01*
G01X15781Y13417D01*
G01X15818Y13400D01*
G01X15835Y13382D01*
G01X15855Y13344D01*
G01X15855Y13290D01*
G01X15818Y13255D01*
G01X15764Y13236D01*
G01X15690Y13236D01*
G01X15635Y13255D01*
G01X15600Y13290D01*
G01X16255Y13617D02*
G01X16255Y13236D01*
G01X16255Y13236D02*
G01X16472Y13236D01*
G01X20855Y13563D02*
G01X20818Y13600D01*
G01X20764Y13617D01*
G01X20690Y13617D01*
G01X20635Y13600D01*
G01X20600Y13563D01*
G01X20600Y13526D01*
G01X20618Y13490D01*
G01X20635Y13473D01*
G01X20672Y13455D01*
G01X20781Y13417D01*
G01X20818Y13400D01*
G01X20835Y13382D01*
G01X20855Y13344D01*
G01X20855Y13290D01*
G01X20818Y13255D01*
G01X20764Y13236D01*
G01X20690Y13236D01*
G01X20635Y13255D01*
G01X20600Y13290D01*
G01X21255Y13617D02*
G01X21255Y13236D01*
G01X21255Y13236D02*
G01X21472Y13236D01*
G01X20855Y10063D02*
G01X20818Y10100D01*
G01X20764Y10117D01*
G01X20690Y10117D01*
G01X20635Y10100D01*
G01X20600Y10063D01*
G01X20600Y10026D01*
G01X20618Y9990D01*
G01X20635Y9973D01*
G01X20672Y9955D01*
G01X20781Y9917D01*
G01X20818Y9900D01*
G01X20835Y9882D01*
G01X20855Y9844D01*
G01X20855Y9790D01*
G01X20818Y9755D01*
G01X20764Y9736D01*
G01X20690Y9736D01*
G01X20635Y9755D01*
G01X20600Y9790D01*
G01X21255Y10117D02*
G01X21255Y9736D01*
G01X21255Y9736D02*
G01X21472Y9736D01*
G01X15855Y10063D02*
G01X15818Y10100D01*
G01X15764Y10117D01*
G01X15690Y10117D01*
G01X15635Y10100D01*
G01X15600Y10063D01*
G01X15600Y10026D01*
G01X15618Y9990D01*
G01X15635Y9973D01*
G01X15672Y9955D01*
G01X15781Y9917D01*
G01X15818Y9900D01*
G01X15835Y9882D01*
G01X15855Y9844D01*
G01X15855Y9790D01*
G01X15818Y9755D01*
G01X15764Y9736D01*
G01X15690Y9736D01*
G01X15635Y9755D01*
G01X15600Y9790D01*
G01X16255Y10117D02*
G01X16255Y9736D01*
G01X16255Y9736D02*
G01X16472Y9736D01*
G01X10855Y10063D02*
G01X10818Y10100D01*
G01X10764Y10117D01*
G01X10690Y10117D01*
G01X10635Y10100D01*
G01X10600Y10063D01*
G01X10600Y10026D01*
G01X10618Y9990D01*
G01X10635Y9973D01*
G01X10672Y9955D01*
G01X10781Y9917D01*
G01X10818Y9900D01*
G01X10835Y9882D01*
G01X10855Y9844D01*
G01X10855Y9790D01*
G01X10818Y9755D01*
G01X10764Y9736D01*
G01X10690Y9736D01*
G01X10635Y9755D01*
G01X10600Y9790D01*
G01X11255Y10117D02*
G01X11255Y9736D01*
G01X11255Y9736D02*
G01X11472Y9736D01*
G01X5855Y10063D02*
G01X5817Y10100D01*
G01X5763Y10117D01*
G01X5690Y10117D01*
G01X5636Y10100D01*
G01X5600Y10063D01*
G01X5600Y10026D01*
G01X5617Y9990D01*
G01X5636Y9973D01*
G01X5673Y9955D01*
G01X5782Y9917D01*
G01X5817Y9900D01*
G01X5836Y9882D01*
G01X5855Y9844D01*
G01X5855Y9790D01*
G01X5817Y9755D01*
G01X5763Y9736D01*
G01X5690Y9736D01*
G01X5636Y9755D01*
G01X5600Y9790D01*
G01X6255Y10117D02*
G01X6255Y9736D01*
G01X6255Y9736D02*
G01X6473Y9736D01*
G01X5855Y6563D02*
G01X5817Y6600D01*
G01X5763Y6617D01*
G01X5690Y6617D01*
G01X5636Y6600D01*
G01X5600Y6563D01*
G01X5600Y6526D01*
G01X5617Y6490D01*
G01X5636Y6473D01*
G01X5673Y6455D01*
G01X5782Y6417D01*
G01X5817Y6400D01*
G01X5836Y6382D01*
G01X5855Y6344D01*
G01X5855Y6290D01*
G01X5817Y6255D01*
G01X5763Y6236D01*
G01X5690Y6236D01*
G01X5636Y6255D01*
G01X5600Y6290D01*
G01X6255Y6617D02*
G01X6255Y6236D01*
G01X6255Y6236D02*
G01X6473Y6236D01*
G01X15409Y4800D02*
G01X15372Y4782D01*
G01X15335Y4746D01*
G01X15318Y4709D01*
G01X15300Y4655D01*
G01X15300Y4564D01*
G01X15318Y4509D01*
G01X15335Y4473D01*
G01X15372Y4437D01*
G01X15409Y4418D01*
G01X15481Y4418D01*
G01X15518Y4437D01*
G01X15555Y4473D01*
G01X15572Y4509D01*
G01X15590Y4564D01*
G01X15590Y4655D01*
G01X15572Y4709D01*
G01X15555Y4746D01*
G01X15518Y4782D01*
G01X15481Y4800D01*
G01X15409Y4800D01*
G01X15710Y4727D02*
G01X15747Y4746D01*
G01X15802Y4800D01*
G01X15802Y4418D01*
G01X16310Y4800D02*
G01X16275Y4782D01*
G01X16238Y4746D01*
G01X16219Y4709D01*
G01X16202Y4655D01*
G01X16202Y4564D01*
G01X16219Y4509D01*
G01X16238Y4473D01*
G01X16275Y4437D01*
G01X16310Y4418D01*
G01X16384Y4418D01*
G01X16419Y4437D01*
G01X16456Y4473D01*
G01X16475Y4509D01*
G01X16493Y4564D01*
G01X16493Y4655D01*
G01X16475Y4709D01*
G01X16456Y4746D01*
G01X16419Y4782D01*
G01X16384Y4800D01*
G01X16310Y4800D01*
G01X16631Y4709D02*
G01X16631Y4727D01*
G01X16648Y4764D01*
G01X16667Y4782D01*
G01X16703Y4800D01*
G01X16776Y4800D01*
G01X16813Y4782D01*
G01X16831Y4764D01*
G01X16848Y4727D01*
G01X16848Y4691D01*
G01X16831Y4655D01*
G01X16794Y4600D01*
G01X16613Y4418D01*
G01X16867Y4418D01*
G01X20409Y4817D02*
G01X20372Y4800D01*
G01X20335Y4763D01*
G01X20318Y4726D01*
G01X20300Y4673D01*
G01X20300Y4582D01*
G01X20318Y4526D01*
G01X20335Y4490D01*
G01X20372Y4455D01*
G01X20409Y4436D01*
G01X20481Y4436D01*
G01X20518Y4455D01*
G01X20555Y4490D01*
G01X20572Y4526D01*
G01X20590Y4582D01*
G01X20590Y4673D01*
G01X20572Y4726D01*
G01X20555Y4763D01*
G01X20518Y4800D01*
G01X20481Y4817D01*
G01X20409Y4817D01*
G01X20710Y4744D02*
G01X20747Y4763D01*
G01X20802Y4817D01*
G01X20802Y4436D01*
G01X21310Y4817D02*
G01X21275Y4800D01*
G01X21238Y4763D01*
G01X21219Y4726D01*
G01X21202Y4673D01*
G01X21202Y4582D01*
G01X21219Y4526D01*
G01X21238Y4490D01*
G01X21275Y4455D01*
G01X21310Y4436D01*
G01X21384Y4436D01*
G01X21419Y4455D01*
G01X21456Y4490D01*
G01X21475Y4526D01*
G01X21493Y4582D01*
G01X21493Y4673D01*
G01X21475Y4726D01*
G01X21456Y4763D01*
G01X21419Y4800D01*
G01X21384Y4817D01*
G01X21310Y4817D01*
G01X21631Y4726D02*
G01X21631Y4744D01*
G01X21648Y4782D01*
G01X21667Y4800D01*
G01X21703Y4817D01*
G01X21776Y4817D01*
G01X21813Y4800D01*
G01X21831Y4782D01*
G01X21848Y4744D01*
G01X21848Y4709D01*
G01X21831Y4673D01*
G01X21794Y4617D01*
G01X21613Y4436D01*
G01X21867Y4436D01*
G01X12900Y500D02*
G01X12900Y117D01*
G01X12900Y500D02*
G01X13027Y500D01*
G01X13081Y482D01*
G01X13118Y446D01*
G01X13135Y409D01*
G01X13155Y355D01*
G01X13155Y263D01*
G01X13135Y209D01*
G01X13118Y173D01*
G01X13081Y136D01*
G01X13027Y117D01*
G01X12900Y117D01*
G01X14106Y409D02*
G01X14089Y446D01*
G01X14052Y482D01*
G01X14015Y500D01*
G01X13943Y500D01*
G01X13906Y482D01*
G01X13871Y446D01*
G01X13852Y409D01*
G01X13835Y355D01*
G01X13835Y263D01*
G01X13852Y209D01*
G01X13871Y173D01*
G01X13906Y136D01*
G01X13943Y117D01*
G01X14015Y117D01*
G01X14052Y136D01*
G01X14089Y173D01*
G01X14106Y209D01*
G01X14786Y500D02*
G01X14786Y117D01*
G01X14786Y117D02*
G01X15005Y117D01*
G54D40*
G75*
G01X24663Y6583D02*
G3X24664Y6582I-83J-84D01*
G01*
G54D41*
G75*
G01X23577Y6207D02*
G3X23578Y6207I-41J-42D01*
G01*
G54D10*
G75*
G01X29856Y11612D02*
G3X29917Y13410I-369J913D01*
G01*
G75*
G01X29083Y13410D02*
G3X29158Y11607I430J-885D01*
G01*
G54D38*
G75*
G01X26972Y900D02*
G03X26972Y900I-472J0D01*
G01*
G75*
G01X26855Y900D02*
G03X26855Y900I-355J0D01*
G01*

%LPD*%
G36*
G01X30300Y11975D02*
G01X30300Y12025D01*
G01X29700Y12025D01*
G01X29700Y11575D01*
G01X29900Y11575D01*
G01X30300Y11975D01*
G37*

%LPD*%
G36*
G01X28700Y11975D02*
G01X28700Y12025D01*
G01X29300Y12025D01*
G01X29300Y11575D01*
G01X29100Y11575D01*
G01X28700Y11975D01*
G37*

%LPD*%
G36*
G01X23250Y1175D02*
G01X22750Y1175D01*
G01X23000Y1425D01*
G01X23250Y1175D01*
G37*

%LPD*%
G36*
G01X500Y8550D02*
G01X500Y8550D01*
G01X500Y8550D01*
G01X495Y8550D01*
G01X491Y8550D01*
G01X486Y8550D01*
G01X482Y8550D01*
G01X478Y8550D01*
G01X473Y8551D01*
G01X469Y8551D01*
G01X465Y8552D01*
G01X460Y8553D01*
G01X456Y8553D01*
G01X452Y8554D01*
G01X448Y8555D01*
G01X443Y8556D01*
G01X439Y8557D01*
G01X435Y8558D01*
G01X431Y8559D01*
G01X426Y8560D01*
G01X422Y8562D01*
G01X418Y8563D01*
G01X414Y8565D01*
G01X410Y8566D01*
G01X406Y8568D01*
G01X402Y8569D01*
G01X398Y8571D01*
G01X394Y8573D01*
G01X390Y8575D01*
G01X386Y8577D01*
G01X382Y8579D01*
G01X378Y8581D01*
G01X375Y8583D01*
G01X371Y8585D01*
G01X367Y8587D01*
G01X363Y8590D01*
G01X360Y8592D01*
G01X356Y8595D01*
G01X353Y8597D01*
G01X349Y8600D01*
G01X346Y8602D01*
G01X342Y8605D01*
G01X339Y8608D01*
G01X335Y8611D01*
G01X332Y8614D01*
G01X329Y8617D01*
G01X326Y8620D01*
G01X323Y8623D01*
G01X320Y8626D01*
G01X317Y8629D01*
G01X314Y8632D01*
G01X311Y8635D01*
G01X308Y8639D01*
G01X305Y8642D01*
G01X302Y8646D01*
G01X300Y8649D01*
G01X297Y8653D01*
G01X295Y8656D01*
G01X292Y8660D01*
G01X290Y8663D01*
G01X287Y8667D01*
G01X285Y8671D01*
G01X283Y8675D01*
G01X281Y8678D01*
G01X279Y8682D01*
G01X277Y8686D01*
G01X275Y8690D01*
G01X273Y8694D01*
G01X271Y8698D01*
G01X269Y8702D01*
G01X268Y8706D01*
G01X266Y8710D01*
G01X265Y8714D01*
G01X263Y8718D01*
G01X262Y8722D01*
G01X260Y8726D01*
G01X259Y8731D01*
G01X258Y8735D01*
G01X257Y8739D01*
G01X256Y8743D01*
G01X255Y8748D01*
G01X254Y8752D01*
G01X253Y8756D01*
G01X253Y8760D01*
G01X252Y8765D01*
G01X251Y8769D01*
G01X251Y8773D01*
G01X250Y8778D01*
G01X250Y8782D01*
G01X250Y8786D01*
G01X250Y8791D01*
G01X250Y8795D01*
G01X250Y8800D01*
G01X250Y8804D01*
G01X250Y8808D01*
G01X250Y8813D01*
G01X250Y8817D01*
G01X250Y8821D01*
G01X251Y8826D01*
G01X251Y8830D01*
G01X252Y8834D01*
G01X253Y8839D01*
G01X253Y8843D01*
G01X254Y8847D01*
G01X255Y8851D01*
G01X256Y8856D01*
G01X257Y8860D01*
G01X258Y8864D01*
G01X259Y8868D01*
G01X260Y8873D01*
G01X262Y8877D01*
G01X263Y8881D01*
G01X265Y8885D01*
G01X266Y8889D01*
G01X268Y8893D01*
G01X269Y8897D01*
G01X271Y8901D01*
G01X273Y8905D01*
G01X275Y8909D01*
G01X277Y8913D01*
G01X279Y8917D01*
G01X281Y8921D01*
G01X283Y8925D01*
G01X285Y8928D01*
G01X287Y8932D01*
G01X290Y8936D01*
G01X292Y8939D01*
G01X295Y8943D01*
G01X297Y8946D01*
G01X300Y8950D01*
G01X302Y8953D01*
G01X305Y8957D01*
G01X308Y8960D01*
G01X311Y8964D01*
G01X314Y8967D01*
G01X317Y8970D01*
G01X320Y8973D01*
G01X323Y8976D01*
G01X326Y8979D01*
G01X329Y8982D01*
G01X332Y8985D01*
G01X335Y8988D01*
G01X339Y8991D01*
G01X342Y8994D01*
G01X346Y8997D01*
G01X349Y8999D01*
G01X353Y9002D01*
G01X356Y9004D01*
G01X360Y9007D01*
G01X363Y9009D01*
G01X367Y9012D01*
G01X371Y9014D01*
G01X375Y9016D01*
G01X378Y9018D01*
G01X382Y9020D01*
G01X386Y9022D01*
G01X390Y9024D01*
G01X394Y9026D01*
G01X398Y9028D01*
G01X402Y9030D01*
G01X406Y9031D01*
G01X410Y9033D01*
G01X414Y9034D01*
G01X418Y9036D01*
G01X422Y9037D01*
G01X426Y9039D01*
G01X431Y9040D01*
G01X435Y9041D01*
G01X439Y9042D01*
G01X443Y9043D01*
G01X448Y9044D01*
G01X452Y9045D01*
G01X456Y9046D01*
G01X460Y9046D01*
G01X465Y9047D01*
G01X469Y9048D01*
G01X473Y9048D01*
G01X478Y9049D01*
G01X482Y9049D01*
G01X486Y9049D01*
G01X491Y9049D01*
G01X495Y9049D01*
G01X500Y9050D01*
G01X500Y9050D01*
G01X504Y9049D01*
G01X508Y9049D01*
G01X513Y9049D01*
G01X517Y9049D01*
G01X521Y9049D01*
G01X526Y9048D01*
G01X530Y9048D01*
G01X534Y9047D01*
G01X539Y9046D01*
G01X543Y9046D01*
G01X547Y9045D01*
G01X551Y9044D01*
G01X556Y9043D01*
G01X560Y9042D01*
G01X564Y9041D01*
G01X568Y9040D01*
G01X573Y9039D01*
G01X577Y9037D01*
G01X581Y9036D01*
G01X585Y9034D01*
G01X589Y9033D01*
G01X593Y9031D01*
G01X597Y9030D01*
G01X601Y9028D01*
G01X605Y9026D01*
G01X609Y9024D01*
G01X613Y9022D01*
G01X617Y9020D01*
G01X621Y9018D01*
G01X625Y9016D01*
G01X628Y9014D01*
G01X632Y9012D01*
G01X636Y9009D01*
G01X639Y9007D01*
G01X643Y9004D01*
G01X646Y9002D01*
G01X650Y8999D01*
G01X653Y8997D01*
G01X657Y8994D01*
G01X660Y8991D01*
G01X664Y8988D01*
G01X667Y8985D01*
G01X670Y8982D01*
G01X673Y8979D01*
G01X676Y8976D01*
G01X679Y8973D01*
G01X682Y8970D01*
G01X685Y8967D01*
G01X688Y8964D01*
G01X691Y8960D01*
G01X694Y8957D01*
G01X697Y8953D01*
G01X699Y8950D01*
G01X702Y8946D01*
G01X704Y8943D01*
G01X707Y8939D01*
G01X709Y8936D01*
G01X712Y8932D01*
G01X714Y8928D01*
G01X716Y8925D01*
G01X718Y8921D01*
G01X720Y8917D01*
G01X722Y8913D01*
G01X724Y8909D01*
G01X726Y8905D01*
G01X728Y8901D01*
G01X730Y8897D01*
G01X731Y8893D01*
G01X733Y8889D01*
G01X734Y8885D01*
G01X736Y8881D01*
G01X737Y8877D01*
G01X739Y8873D01*
G01X740Y8868D01*
G01X741Y8864D01*
G01X742Y8860D01*
G01X743Y8856D01*
G01X744Y8851D01*
G01X745Y8847D01*
G01X746Y8843D01*
G01X746Y8839D01*
G01X747Y8834D01*
G01X748Y8830D01*
G01X748Y8826D01*
G01X749Y8821D01*
G01X749Y8817D01*
G01X749Y8813D01*
G01X749Y8808D01*
G01X749Y8804D01*
G01X750Y8800D01*
G01X749Y8795D01*
G01X749Y8791D01*
G01X749Y8786D01*
G01X749Y8782D01*
G01X749Y8778D01*
G01X748Y8773D01*
G01X748Y8769D01*
G01X747Y8765D01*
G01X746Y8760D01*
G01X746Y8756D01*
G01X745Y8752D01*
G01X744Y8748D01*
G01X743Y8743D01*
G01X742Y8739D01*
G01X741Y8735D01*
G01X740Y8731D01*
G01X739Y8726D01*
G01X737Y8722D01*
G01X736Y8718D01*
G01X734Y8714D01*
G01X733Y8710D01*
G01X731Y8706D01*
G01X730Y8702D01*
G01X728Y8698D01*
G01X726Y8694D01*
G01X724Y8690D01*
G01X722Y8686D01*
G01X720Y8682D01*
G01X718Y8678D01*
G01X716Y8675D01*
G01X714Y8671D01*
G01X712Y8667D01*
G01X709Y8663D01*
G01X707Y8660D01*
G01X704Y8656D01*
G01X702Y8653D01*
G01X699Y8649D01*
G01X697Y8646D01*
G01X694Y8642D01*
G01X691Y8639D01*
G01X688Y8635D01*
G01X685Y8632D01*
G01X682Y8629D01*
G01X679Y8626D01*
G01X676Y8623D01*
G01X673Y8620D01*
G01X670Y8617D01*
G01X667Y8614D01*
G01X664Y8611D01*
G01X660Y8608D01*
G01X657Y8605D01*
G01X653Y8602D01*
G01X650Y8600D01*
G01X646Y8597D01*
G01X643Y8595D01*
G01X639Y8592D01*
G01X636Y8590D01*
G01X632Y8587D01*
G01X628Y8585D01*
G01X625Y8583D01*
G01X621Y8581D01*
G01X617Y8579D01*
G01X613Y8577D01*
G01X609Y8575D01*
G01X605Y8573D01*
G01X601Y8571D01*
G01X597Y8569D01*
G01X593Y8568D01*
G01X589Y8566D01*
G01X585Y8565D01*
G01X581Y8563D01*
G01X577Y8562D01*
G01X573Y8560D01*
G01X568Y8559D01*
G01X564Y8558D01*
G01X560Y8557D01*
G01X556Y8556D01*
G01X551Y8555D01*
G01X547Y8554D01*
G01X543Y8553D01*
G01X539Y8553D01*
G01X534Y8552D01*
G01X530Y8551D01*
G01X526Y8551D01*
G01X521Y8550D01*
G01X517Y8550D01*
G01X513Y8550D01*
G01X508Y8550D01*
G01X504Y8550D01*
G01X500Y8550D01*
G37*

%LPD*%
G36*
G01X2600Y450D02*
G01X2600Y450D01*
G01X2600Y450D01*
G01X2595Y450D01*
G01X2591Y450D01*
G01X2586Y450D01*
G01X2582Y450D01*
G01X2578Y450D01*
G01X2573Y451D01*
G01X2569Y451D01*
G01X2565Y452D01*
G01X2560Y453D01*
G01X2556Y453D01*
G01X2552Y454D01*
G01X2548Y455D01*
G01X2543Y456D01*
G01X2539Y457D01*
G01X2535Y458D01*
G01X2531Y459D01*
G01X2526Y460D01*
G01X2522Y462D01*
G01X2518Y463D01*
G01X2514Y465D01*
G01X2510Y466D01*
G01X2506Y468D01*
G01X2502Y469D01*
G01X2498Y471D01*
G01X2494Y473D01*
G01X2490Y475D01*
G01X2486Y477D01*
G01X2482Y479D01*
G01X2478Y481D01*
G01X2475Y483D01*
G01X2471Y485D01*
G01X2467Y487D01*
G01X2463Y490D01*
G01X2460Y492D01*
G01X2456Y495D01*
G01X2453Y497D01*
G01X2449Y500D01*
G01X2446Y502D01*
G01X2442Y505D01*
G01X2439Y508D01*
G01X2435Y511D01*
G01X2432Y514D01*
G01X2429Y517D01*
G01X2426Y520D01*
G01X2423Y523D01*
G01X2420Y526D01*
G01X2417Y529D01*
G01X2414Y532D01*
G01X2411Y535D01*
G01X2408Y539D01*
G01X2405Y542D01*
G01X2402Y546D01*
G01X2400Y549D01*
G01X2397Y553D01*
G01X2395Y556D01*
G01X2392Y560D01*
G01X2390Y563D01*
G01X2387Y567D01*
G01X2385Y571D01*
G01X2383Y575D01*
G01X2381Y578D01*
G01X2379Y582D01*
G01X2377Y586D01*
G01X2375Y590D01*
G01X2373Y594D01*
G01X2371Y598D01*
G01X2369Y602D01*
G01X2368Y606D01*
G01X2366Y610D01*
G01X2365Y614D01*
G01X2363Y618D01*
G01X2362Y622D01*
G01X2360Y626D01*
G01X2359Y631D01*
G01X2358Y635D01*
G01X2357Y639D01*
G01X2356Y643D01*
G01X2355Y648D01*
G01X2354Y652D01*
G01X2353Y656D01*
G01X2353Y660D01*
G01X2352Y665D01*
G01X2351Y669D01*
G01X2351Y673D01*
G01X2350Y678D01*
G01X2350Y682D01*
G01X2350Y686D01*
G01X2350Y691D01*
G01X2350Y695D01*
G01X2350Y700D01*
G01X2350Y704D01*
G01X2350Y708D01*
G01X2350Y713D01*
G01X2350Y717D01*
G01X2350Y721D01*
G01X2351Y726D01*
G01X2351Y730D01*
G01X2352Y734D01*
G01X2353Y739D01*
G01X2353Y743D01*
G01X2354Y747D01*
G01X2355Y751D01*
G01X2356Y756D01*
G01X2357Y760D01*
G01X2358Y764D01*
G01X2359Y768D01*
G01X2360Y773D01*
G01X2362Y777D01*
G01X2363Y781D01*
G01X2365Y785D01*
G01X2366Y789D01*
G01X2368Y793D01*
G01X2369Y797D01*
G01X2371Y801D01*
G01X2373Y805D01*
G01X2375Y809D01*
G01X2377Y813D01*
G01X2379Y817D01*
G01X2381Y821D01*
G01X2383Y825D01*
G01X2385Y828D01*
G01X2387Y832D01*
G01X2390Y836D01*
G01X2392Y839D01*
G01X2395Y843D01*
G01X2397Y846D01*
G01X2400Y850D01*
G01X2402Y853D01*
G01X2405Y857D01*
G01X2408Y860D01*
G01X2411Y864D01*
G01X2414Y867D01*
G01X2417Y870D01*
G01X2420Y873D01*
G01X2423Y876D01*
G01X2426Y879D01*
G01X2429Y882D01*
G01X2432Y885D01*
G01X2435Y888D01*
G01X2439Y891D01*
G01X2442Y894D01*
G01X2446Y897D01*
G01X2449Y899D01*
G01X2453Y902D01*
G01X2456Y904D01*
G01X2460Y907D01*
G01X2463Y909D01*
G01X2467Y912D01*
G01X2471Y914D01*
G01X2475Y916D01*
G01X2478Y918D01*
G01X2482Y920D01*
G01X2486Y922D01*
G01X2490Y924D01*
G01X2494Y926D01*
G01X2498Y928D01*
G01X2502Y930D01*
G01X2506Y931D01*
G01X2510Y933D01*
G01X2514Y934D01*
G01X2518Y936D01*
G01X2522Y937D01*
G01X2526Y939D01*
G01X2531Y940D01*
G01X2535Y941D01*
G01X2539Y942D01*
G01X2543Y943D01*
G01X2548Y944D01*
G01X2552Y945D01*
G01X2556Y946D01*
G01X2560Y946D01*
G01X2565Y947D01*
G01X2569Y948D01*
G01X2573Y948D01*
G01X2578Y949D01*
G01X2582Y949D01*
G01X2586Y949D01*
G01X2591Y949D01*
G01X2595Y949D01*
G01X2600Y950D01*
G01X2600Y950D01*
G01X2604Y949D01*
G01X2608Y949D01*
G01X2613Y949D01*
G01X2617Y949D01*
G01X2621Y949D01*
G01X2626Y948D01*
G01X2630Y948D01*
G01X2634Y947D01*
G01X2639Y946D01*
G01X2643Y946D01*
G01X2647Y945D01*
G01X2651Y944D01*
G01X2656Y943D01*
G01X2660Y942D01*
G01X2664Y941D01*
G01X2668Y940D01*
G01X2673Y939D01*
G01X2677Y937D01*
G01X2681Y936D01*
G01X2685Y934D01*
G01X2689Y933D01*
G01X2693Y931D01*
G01X2697Y930D01*
G01X2701Y928D01*
G01X2705Y926D01*
G01X2709Y924D01*
G01X2713Y922D01*
G01X2717Y920D01*
G01X2721Y918D01*
G01X2725Y916D01*
G01X2728Y914D01*
G01X2732Y912D01*
G01X2736Y909D01*
G01X2739Y907D01*
G01X2743Y904D01*
G01X2746Y902D01*
G01X2750Y899D01*
G01X2753Y897D01*
G01X2757Y894D01*
G01X2760Y891D01*
G01X2764Y888D01*
G01X2767Y885D01*
G01X2770Y882D01*
G01X2773Y879D01*
G01X2776Y876D01*
G01X2779Y873D01*
G01X2782Y870D01*
G01X2785Y867D01*
G01X2788Y864D01*
G01X2791Y860D01*
G01X2794Y857D01*
G01X2797Y853D01*
G01X2799Y850D01*
G01X2802Y846D01*
G01X2804Y843D01*
G01X2807Y839D01*
G01X2809Y836D01*
G01X2812Y832D01*
G01X2814Y828D01*
G01X2816Y825D01*
G01X2818Y821D01*
G01X2820Y817D01*
G01X2822Y813D01*
G01X2824Y809D01*
G01X2826Y805D01*
G01X2828Y801D01*
G01X2830Y797D01*
G01X2831Y793D01*
G01X2833Y789D01*
G01X2834Y785D01*
G01X2836Y781D01*
G01X2837Y777D01*
G01X2839Y773D01*
G01X2840Y768D01*
G01X2841Y764D01*
G01X2842Y760D01*
G01X2843Y756D01*
G01X2844Y751D01*
G01X2845Y747D01*
G01X2846Y743D01*
G01X2846Y739D01*
G01X2847Y734D01*
G01X2848Y730D01*
G01X2848Y726D01*
G01X2849Y721D01*
G01X2849Y717D01*
G01X2849Y713D01*
G01X2849Y708D01*
G01X2849Y704D01*
G01X2850Y700D01*
G01X2849Y695D01*
G01X2849Y691D01*
G01X2849Y686D01*
G01X2849Y682D01*
G01X2849Y678D01*
G01X2848Y673D01*
G01X2848Y669D01*
G01X2847Y665D01*
G01X2846Y660D01*
G01X2846Y656D01*
G01X2845Y652D01*
G01X2844Y648D01*
G01X2843Y643D01*
G01X2842Y639D01*
G01X2841Y635D01*
G01X2840Y631D01*
G01X2839Y626D01*
G01X2837Y622D01*
G01X2836Y618D01*
G01X2834Y614D01*
G01X2833Y610D01*
G01X2831Y606D01*
G01X2830Y602D01*
G01X2828Y598D01*
G01X2826Y594D01*
G01X2824Y590D01*
G01X2822Y586D01*
G01X2820Y582D01*
G01X2818Y578D01*
G01X2816Y575D01*
G01X2814Y571D01*
G01X2812Y567D01*
G01X2809Y563D01*
G01X2807Y560D01*
G01X2804Y556D01*
G01X2802Y553D01*
G01X2799Y549D01*
G01X2797Y546D01*
G01X2794Y542D01*
G01X2791Y539D01*
G01X2788Y535D01*
G01X2785Y532D01*
G01X2782Y529D01*
G01X2779Y526D01*
G01X2776Y523D01*
G01X2773Y520D01*
G01X2770Y517D01*
G01X2767Y514D01*
G01X2764Y511D01*
G01X2760Y508D01*
G01X2757Y505D01*
G01X2753Y502D01*
G01X2750Y500D01*
G01X2746Y497D01*
G01X2743Y495D01*
G01X2739Y492D01*
G01X2736Y490D01*
G01X2732Y487D01*
G01X2728Y485D01*
G01X2725Y483D01*
G01X2721Y481D01*
G01X2717Y479D01*
G01X2713Y477D01*
G01X2709Y475D01*
G01X2705Y473D01*
G01X2701Y471D01*
G01X2697Y469D01*
G01X2693Y468D01*
G01X2689Y466D01*
G01X2685Y465D01*
G01X2681Y463D01*
G01X2677Y462D01*
G01X2673Y460D01*
G01X2668Y459D01*
G01X2664Y458D01*
G01X2660Y457D01*
G01X2656Y456D01*
G01X2651Y455D01*
G01X2647Y454D01*
G01X2643Y453D01*
G01X2639Y453D01*
G01X2634Y452D01*
G01X2630Y451D01*
G01X2626Y451D01*
G01X2621Y450D01*
G01X2617Y450D01*
G01X2613Y450D01*
G01X2608Y450D01*
G01X2604Y450D01*
G01X2600Y450D01*
G37*
M00*
M02*
