G04 ---------------------------- Layer name :BOTTOM SILK LAYER*
G04 EasyEDA v5.8.22, Tue, 08 Jan 2019 20:33:26 GMT*
G04 129acfe98f9248dba87738b5e980386f*
G04 Gerber Generator version 0.2*
G04 Scale: 100 percent, Rotated: No, Reflected: No *
G04 Dimensions in inches *
G04 leading zeros omitted , absolute positions ,2 integer and 4 decimal *
%FSLAX24Y24*%
%MOIN*%
G90*
G70D02*

%ADD10C,0.010000*%
%ADD34C,0.007870*%
%ADD39C,0.007000*%

%LPD*%
G54D10*
G01X18131Y1934D02*
G01X18131Y4061D01*
G01X16872Y1934D02*
G01X16872Y4061D01*
G01X18131Y1934D02*
G01X16872Y1934D01*
G01X18119Y4065D02*
G01X16919Y4065D01*
G01X9935Y4869D02*
G01X12060Y4869D01*
G01X9935Y6128D02*
G01X12060Y6128D01*
G01X9935Y4869D02*
G01X9935Y6128D01*
G01X12064Y4880D02*
G01X12064Y6080D01*
G54D34*
G01X28434Y2657D02*
G01X28065Y2290D01*
G01X27489Y2865D01*
G01X27856Y3234D01*
G01X28748Y2973D02*
G01X29115Y3340D01*
G01X28539Y3915D01*
G01X28172Y3548D01*
G01X29765Y5142D02*
G01X30134Y5509D01*
G01X30710Y4934D01*
G01X30343Y4565D01*
G01X29451Y4826D02*
G01X29084Y4459D01*
G01X29660Y3884D01*
G01X30027Y4251D01*
G01X26618Y11207D02*
G01X27138Y11207D01*
G01X27138Y10392D01*
G01X26618Y10392D01*
G01X26172Y11207D02*
G01X25652Y11207D01*
G01X25652Y10392D01*
G01X26172Y10392D01*
G01X24581Y10392D02*
G01X24061Y10392D01*
G01X24061Y11207D01*
G01X24581Y11207D01*
G01X25027Y10392D02*
G01X25547Y10392D01*
G01X25547Y11207D01*
G01X25027Y11207D01*
G01X2992Y3718D02*
G01X2992Y4238D01*
G01X3807Y4238D01*
G01X3807Y3718D01*
G01X2992Y3272D02*
G01X2992Y2753D01*
G01X3807Y2753D01*
G01X3807Y3272D01*
G01X3992Y3718D02*
G01X3992Y4238D01*
G01X4807Y4238D01*
G01X4807Y3718D01*
G01X3992Y3272D02*
G01X3992Y2753D01*
G01X4807Y2753D01*
G01X4807Y3272D01*
G01X4992Y3718D02*
G01X4992Y4238D01*
G01X5807Y4238D01*
G01X5807Y3718D01*
G01X4992Y3272D02*
G01X4992Y2753D01*
G01X5807Y2753D01*
G01X5807Y3272D01*
G01X5992Y3718D02*
G01X5992Y4238D01*
G01X6807Y4238D01*
G01X6807Y3718D01*
G01X5992Y3272D02*
G01X5992Y2753D01*
G01X6807Y2753D01*
G01X6807Y3272D01*
G01X11592Y2718D02*
G01X11592Y3238D01*
G01X12407Y3238D01*
G01X12407Y2718D01*
G01X11592Y2272D02*
G01X11592Y1753D01*
G01X12407Y1753D01*
G01X12407Y2272D01*
G01X10592Y2718D02*
G01X10592Y3238D01*
G01X11407Y3238D01*
G01X11407Y2718D01*
G01X10592Y2272D02*
G01X10592Y1753D01*
G01X11407Y1753D01*
G01X11407Y2272D01*
G01X9592Y2718D02*
G01X9592Y3238D01*
G01X10407Y3238D01*
G01X10407Y2718D01*
G01X9592Y2272D02*
G01X9592Y1753D01*
G01X10407Y1753D01*
G01X10407Y2272D01*
G01X7292Y5718D02*
G01X7292Y6238D01*
G01X8107Y6238D01*
G01X8107Y5718D01*
G01X7292Y5272D02*
G01X7292Y4753D01*
G01X8107Y4753D01*
G01X8107Y5272D01*
G01X20881Y7392D02*
G01X20361Y7392D01*
G01X20361Y8207D01*
G01X20881Y8207D01*
G01X21327Y7392D02*
G01X21847Y7392D01*
G01X21847Y8207D01*
G01X21327Y8207D01*
G01X15881Y7392D02*
G01X15361Y7392D01*
G01X15361Y8207D01*
G01X15881Y8207D01*
G01X16327Y7392D02*
G01X16847Y7392D01*
G01X16847Y8207D01*
G01X16327Y8207D01*
G01X5881Y7392D02*
G01X5361Y7392D01*
G01X5361Y8207D01*
G01X5881Y8207D01*
G01X6327Y7392D02*
G01X6846Y7392D01*
G01X6846Y8207D01*
G01X6327Y8207D01*
G01X10881Y7392D02*
G01X10361Y7392D01*
G01X10361Y8207D01*
G01X10881Y8207D01*
G01X11327Y7392D02*
G01X11847Y7392D01*
G01X11847Y8207D01*
G01X11327Y8207D01*
G01X20881Y10892D02*
G01X20361Y10892D01*
G01X20361Y11707D01*
G01X20881Y11707D01*
G01X21327Y10892D02*
G01X21847Y10892D01*
G01X21847Y11707D01*
G01X21327Y11707D01*
G01X15881Y10892D02*
G01X15361Y10892D01*
G01X15361Y11707D01*
G01X15881Y11707D01*
G01X16327Y10892D02*
G01X16847Y10892D01*
G01X16847Y11707D01*
G01X16327Y11707D01*
G01X10881Y10892D02*
G01X10361Y10892D01*
G01X10361Y11707D01*
G01X10881Y11707D01*
G01X11327Y10892D02*
G01X11847Y10892D01*
G01X11847Y11707D01*
G01X11327Y11707D01*
G01X5881Y10892D02*
G01X5361Y10892D01*
G01X5361Y11707D01*
G01X5881Y11707D01*
G01X6327Y10892D02*
G01X6846Y10892D01*
G01X6846Y11707D01*
G01X6327Y11707D01*
G54D39*
G01X29321Y2698D02*
G01X29342Y2739D01*
G01X29382Y2780D01*
G01X29422Y2800D01*
G01X29505Y2800D01*
G01X29546Y2780D01*
G01X29586Y2739D01*
G01X29607Y2698D01*
G01X29627Y2637D01*
G01X29627Y2535D01*
G01X29607Y2473D01*
G01X29586Y2432D01*
G01X29546Y2391D01*
G01X29505Y2371D01*
G01X29422Y2371D01*
G01X29382Y2391D01*
G01X29342Y2432D01*
G01X29321Y2473D01*
G01X29165Y2698D02*
G01X29165Y2719D01*
G01X29144Y2760D01*
G01X29125Y2780D01*
G01X29084Y2800D01*
G01X29002Y2800D01*
G01X28960Y2780D01*
G01X28940Y2760D01*
G01X28919Y2719D01*
G01X28919Y2678D01*
G01X28940Y2637D01*
G01X28981Y2575D01*
G01X29185Y2371D01*
G01X28900Y2371D01*
G01X30637Y3998D02*
G01X30658Y4038D01*
G01X30699Y4080D01*
G01X30739Y4100D01*
G01X30821Y4100D01*
G01X30862Y4080D01*
G01X30903Y4038D01*
G01X30924Y3998D01*
G01X30944Y3936D01*
G01X30944Y3834D01*
G01X30924Y3773D01*
G01X30903Y3732D01*
G01X30862Y3690D01*
G01X30821Y3671D01*
G01X30739Y3671D01*
G01X30699Y3690D01*
G01X30658Y3732D01*
G01X30637Y3773D01*
G01X30502Y4019D02*
G01X30461Y4038D01*
G01X30400Y4100D01*
G01X30400Y3671D01*
G01X27924Y11000D02*
G01X27924Y10571D01*
G01X27924Y11000D02*
G01X27740Y11000D01*
G01X27679Y10980D01*
G01X27658Y10959D01*
G01X27638Y10919D01*
G01X27638Y10878D01*
G01X27658Y10836D01*
G01X27679Y10815D01*
G01X27740Y10796D01*
G01X27924Y10796D01*
G01X27781Y10796D02*
G01X27638Y10571D01*
G01X27503Y10919D02*
G01X27462Y10938D01*
G01X27400Y11000D01*
G01X27400Y10571D01*
G01X23908Y11000D02*
G01X23908Y10571D01*
G01X23908Y11000D02*
G01X23724Y11000D01*
G01X23663Y10980D01*
G01X23642Y10960D01*
G01X23622Y10919D01*
G01X23622Y10878D01*
G01X23642Y10837D01*
G01X23663Y10816D01*
G01X23724Y10796D01*
G01X23908Y10796D01*
G01X23765Y10796D02*
G01X23622Y10571D01*
G01X23466Y10898D02*
G01X23466Y10919D01*
G01X23446Y10960D01*
G01X23425Y10980D01*
G01X23384Y11000D01*
G01X23303Y11000D01*
G01X23262Y10980D01*
G01X23241Y10960D01*
G01X23221Y10919D01*
G01X23221Y10878D01*
G01X23241Y10837D01*
G01X23282Y10775D01*
G01X23487Y10571D01*
G01X23200Y10571D01*
G54D10*
G75*
G01X18020Y3865D02*
G03X18020Y3865I-100J0D01*
G01*
G75*
G01X11965Y5080D02*
G03X11965Y5080I-100J0D01*
G01*
M00*
M02*
